<?xml version="1.0" encoding="UTF-8" standalone="no"?>
<svg width="86px" height="90px" viewBox="0 0 86 90" version="1.1" xmlns="http://www.w3.org/2000/svg" xmlns:xlink="http://www.w3.org/1999/xlink">
    <!-- Generator: Sketch 3.7 (28169) - http://www.bohemiancoding.com/sketch -->
    <title>calendar-icons + buses1 + Map Pin 12 + Oval 105 Copy</title>
    <desc>Created with Sketch.</desc>
    <defs>
        <filter x="-50%" y="-50%" width="200%" height="200%" filterUnits="objectBoundingBox" id="filter-1">
            <feGaussianBlur stdDeviation="1.6" in="SourceGraphic"></feGaussianBlur>
        </filter>
    </defs>
    <g id="Page-1" stroke="none" stroke-width="1" fill="none" fill-rule="evenodd">
        <g id="calendar-icons-+-buses1-+-Map-Pin-12-+-Oval-105-Copy" transform="translate(3.000000, 1.000000)">
            <g id="calendar-icons" transform="translate(23.000000, 0.000000)">
                <rect id="Rectangle-34" fill="#628ECC" x="0" y="4" width="37" height="28" rx="3"></rect>
                <path d="M8.5,0.5 L8.5,5.5" id="Line" stroke="#FFFFFF" stroke-width="3" stroke-linecap="round"></path>
                <path d="M28.5,0.5 L28.5,5.5" id="Line-Copy-2" stroke="#FFFFFF" stroke-width="3" stroke-linecap="round"></path>
                <path d="M18.5,0.5 L18.5,5.5" id="Line-Copy-3" stroke="#FFFFFF" stroke-width="3" stroke-linecap="round"></path>
                <rect id="Rectangle-path" fill="#FFFFFF" x="6" y="23" width="4" height="3"></rect>
                <rect id="Rectangle-path" fill="#FFFFFF" x="6" y="17" width="4" height="3"></rect>
                <rect id="Rectangle-path" fill="#FFFFFF" x="6" y="11" width="4" height="3"></rect>
                <rect id="Rectangle-path" fill="#FFFFFF" x="13" y="23" width="4" height="3"></rect>
                <rect id="Rectangle-path" fill="#FFFFFF" x="13" y="17" width="4" height="3"></rect>
                <rect id="Rectangle-path" fill="#FFFFFF" x="13" y="11" width="4" height="3"></rect>
                <rect id="Rectangle-path" fill="#FFFFFF" x="20" y="23" width="4" height="3"></rect>
                <rect id="Rectangle-path" fill="#FFFFFF" x="20" y="17" width="4" height="3"></rect>
                <rect id="Rectangle-path" fill="#FFFFFF" x="20" y="11" width="4" height="3"></rect>
                <rect id="Rectangle-path-Copy-3" fill="#FFFFFF" x="27" y="23" width="4" height="3"></rect>
                <rect id="Rectangle-path-Copy-2" fill="#FFFFFF" x="27" y="17" width="4" height="3"></rect>
                <rect id="Rectangle-path-Copy" fill="#FFFFFF" x="27" y="11" width="4" height="3"></rect>
            </g>
            <g id="buses1-+-Map-Pin-12-+-Oval-105-Copy" transform="translate(0.000000, 42.000000)" fill="#000000">
                <g id="buses1" transform="translate(4.000000, 0.000000)">
                    <g id="Group">
                        <path d="M15.9766468,30.5377786 C15.2392451,30.5377786 14.641379,31.1289857 14.641379,31.8581741 C14.641379,32.5581488 14.0658785,33.1275694 13.3583535,33.1275694 C12.6504946,33.1275694 12.0746603,32.5581488 12.0746603,31.8581741 C12.0746603,31.1585295 12.6504946,30.589274 13.3583535,30.589274 C14.0957551,30.589274 14.6936213,29.9980669 14.6936213,29.2688784 C14.6936213,28.53969 14.0957551,27.9484829 13.3583535,27.9484829 C11.178028,27.9484829 9.40412461,29.7022983 9.40412461,31.8581741 C9.40412461,34.0142151 11.178028,35.7683606 13.3583535,35.7683606 C15.5383451,35.7683606 17.3119147,34.0142151 17.3119147,31.8581741 C17.3119147,31.1289857 16.7140485,30.5377786 15.9766468,30.5377786 L15.9766468,30.5377786 Z" id="Shape"></path>
                        <path d="M64.1080458,30.5377786 C63.3706441,30.5377786 62.772778,31.1289857 62.772778,31.8581741 C62.772778,32.5581488 62.1972775,33.1275694 61.4897525,33.1275694 C60.7818936,33.1275694 60.2060593,32.5581488 60.2060593,31.8581741 C60.2060593,31.1585295 60.7818936,30.589274 61.4897525,30.589274 C62.2271541,30.589274 62.8250203,29.9980669 62.8250203,29.2688784 C62.8250203,28.53969 62.2271541,27.9484829 61.4897525,27.9484829 C59.309427,27.9484829 57.5355236,29.7022983 57.5355236,31.8581741 C57.5355236,34.0142151 59.309427,35.7683606 61.4897525,35.7683606 C63.6697441,35.7683606 65.4433137,34.0142151 65.4433137,31.8581741 C65.4433137,31.1289857 64.8454475,30.5377786 64.1080458,30.5377786 L64.1080458,30.5377786 Z" id="Shape"></path>
                        <path d="M69.4339286,0.157292122 L5.34107143,0.157292122 C2.39597126,0.157292122 0,2.52657692 0,5.43887439 L0,27.0293225 C0,30.6432452 3.09465017,32.3562934 5.42102059,32.9522869 C5.96197098,36.8068517 9.31449475,39.7848388 13.3588542,39.7848388 C16.8203692,39.7848388 19.7758177,37.6027201 20.8942714,34.5564025 L53.9531669,34.5564025 C55.0719544,37.6027201 58.0280705,39.7848388 61.4902532,39.7848388 C64.9517682,39.7848388 67.9072167,37.6027201 69.0256704,34.5564025 L73.4397321,34.5564025 C74.1771338,34.5564025 74.775,33.9651954 74.775,33.2360069 L74.775,5.43887439 C74.775,2.52657692 72.3790287,0.157292122 69.4339286,0.157292122 L69.4339286,0.157292122 Z M72.1044643,18.6080046 L66.825149,18.6080046 C66.0738939,18.6080046 65.462842,18.0035936 65.462842,17.260871 L65.462842,6.80053232 L72.1044643,6.80053232 L72.1044643,18.6080046 L72.1044643,18.6080046 Z M13.3588542,37.1438826 C10.5165696,37.1438826 8.18602651,34.938657 8.02329074,32.1676419 C8.03580887,32.1163115 8.0461572,32.0643209 8.05249972,32.0105148 C8.07119347,31.8515722 8.05900915,31.6964257 8.02312383,31.5493666 C8.18552578,28.7783515 10.5162358,26.5729608 13.3588542,26.5729608 C16.3052896,26.5729608 18.7025961,28.9438961 18.7025961,31.8580091 C18.7025961,34.7726173 16.3052896,37.1438826 13.3588542,37.1438826 L13.3588542,37.1438826 Z M29.4732005,6.80053232 L44.1090715,6.80053232 L44.1090715,18.6080046 L29.4732005,18.6080046 L29.4732005,6.80053232 L29.4732005,6.80053232 Z M26.8026648,18.6080046 L9.37575017,18.6080046 C8.62449509,18.6080046 8.01344314,18.0035936 8.01344314,17.260871 L8.01344314,6.80053232 L26.8026648,6.80053232 L26.8026648,18.6080046 L26.8026648,18.6080046 Z M58.8566042,6.80053232 L58.8566042,17.3155024 C58.8566042,18.0281859 58.2702547,18.6080046 57.5495439,18.6080046 L46.7796072,18.6080046 L46.7796072,6.80053232 L58.8566042,6.80053232 L58.8566042,6.80053232 Z M44.1090715,21.2487958 L44.1090715,31.9154463 L29.4732005,31.9154463 L29.4732005,21.2487958 L44.1090715,21.2487958 L44.1090715,21.2487958 Z M61.4902532,37.1438826 C58.5428163,37.1438826 56.1448421,34.7726173 56.1448421,31.8580091 C56.1448421,28.9438961 58.5428163,26.5729608 61.4902532,26.5729608 C64.4366886,26.5729608 66.8339951,28.9438961 66.8339951,31.8580091 C66.8339951,34.7726173 64.4368555,37.1438826 61.4902532,37.1438826 L61.4902532,37.1438826 Z M69.5030287,31.9154463 C69.5031956,31.8963006 69.5045309,31.8773199 69.5045309,31.8580091 C69.5045309,27.4876648 65.9093222,23.9321697 61.4902532,23.9321697 C57.0703497,23.9321697 53.4743064,27.4876648 53.4743064,31.8580091 C53.4743064,31.8773199 53.4756417,31.8963006 53.4758086,31.9154463 L46.7796072,31.9154463 L46.7796072,21.2487958 L57.5495439,21.2487958 C59.7428883,21.2487958 61.52714,19.4844172 61.52714,17.3155024 L61.52714,5.48013675 C61.52714,4.7509483 60.9292738,4.15974118 60.1918721,4.15974118 L6.67817528,4.15974118 C5.9407736,4.15974118 5.34290742,4.7509483 5.34290742,5.48013675 L5.34290742,17.260871 C5.34290742,19.4598248 7.15202846,21.2487958 9.37575017,21.2487958 L26.8026648,21.2487958 L26.8026648,31.9154463 L21.3716297,31.9154463 C21.3717966,31.8963006 21.3731319,31.8773199 21.3731319,31.8580091 C21.3731319,27.4876648 17.7779232,23.9321697 13.3588542,23.9321697 C9.50777478,23.9321697 6.2831029,26.6317184 5.51665915,30.2174176 C4.28687746,29.8000076 2.67053571,28.8965269 2.67053571,27.0291575 L2.67053571,5.43887439 C2.67053571,3.98264313 3.8686048,2.79808326 5.34107143,2.79808326 L69.4339286,2.79808326 C70.4372155,2.79808326 71.3121497,3.34852316 71.7684775,4.15974118 L64.1275741,4.15974118 C63.3901724,4.15974118 62.7923063,4.7509483 62.7923063,5.48013675 L62.7923063,17.260871 C62.7923063,19.4598248 64.6014273,21.2487958 66.825149,21.2487958 L72.1044643,21.2487958 L72.1044643,22.6177159 L70.8044141,22.6177159 C70.0670124,22.6177159 69.4691463,23.208923 69.4691463,23.9381114 C69.4691463,24.6672999 70.0670124,25.258507 70.8044141,25.258507 L72.1044643,25.258507 L72.1044643,31.9154463 L69.5030287,31.9154463 L69.5030287,31.9154463 Z" id="Shape"></path>
                    </g>
                </g>
                <ellipse id="Oval-105-Copy" opacity="0.5" filter="url(#filter-1)" cx="40" cy="40.5" rx="40" ry="1.5"></ellipse>
            </g>
        </g>
    </g>
</svg>