<?xml version="1.0" encoding="UTF-8" standalone="no"?>
<svg width="24px" height="35px" viewBox="0 0 24 35" version="1.1" xmlns="http://www.w3.org/2000/svg" xmlns:xlink="http://www.w3.org/1999/xlink">
    <!-- Generator: Sketch 3.7 (28169) - http://www.bohemiancoding.com/sketch -->
    <title>Imported Layers 3 + Path Copy</title>
    <desc>Created with Sketch.</desc>
    <defs>
        <path d="M9.79914315,0 C4.3868804,0 0,4.15433558 0,9.27804086 C0,18.1363432 9.79914315,29.6897308 9.79914315,29.6897308 C9.79914315,29.6897308 19.5982863,18.1363432 19.5982863,9.27804086 C19.5982863,4.15433558 15.2110139,0 9.79914315,0 L9.79914315,0 Z" id="path-1"></path>
        <mask id="mask-2" maskContentUnits="userSpaceOnUse" maskUnits="objectBoundingBox" x="-2" y="-2" width="23.5982863" height="33.6897308">
            <rect x="-2" y="-2" width="23.5982863" height="33.6897308" fill="white"></rect>
            <use xlink:href="#path-1" fill="black"></use>
        </mask>
    </defs>
    <g id="Page-1" stroke="none" stroke-width="1" fill="none" fill-rule="evenodd">
        <g id="Imported-Layers-3-+-Path" transform="translate(2.000000, 2.000000)" stroke="#FFC829">
            <use id="Imported-Layers-3" mask="url(#mask-2)" stroke-width="4" xlink:href="#path-1"></use>
            <path d="M9.79914315,13.3603788 C7.71731379,13.3603788 6.03024194,11.6988535 6.03024194,9.64916249 C6.03024194,7.59947145 7.71731379,5.93794615 9.79914315,5.93794615 C11.8806933,5.93794615 13.5680444,7.59947145 13.5680444,9.64916249 C13.5680444,11.6988535 11.8806933,13.3603788 9.79914315,13.3603788 L9.79914315,13.3603788 Z" id="Path" stroke-width="2"></path>
        </g>
    </g>
</svg>