<?xml version="1.0" encoding="UTF-8" standalone="no"?>
<svg width="140px" height="251px" viewBox="0 0 140 251" version="1.1" xmlns="http://www.w3.org/2000/svg" xmlns:xlink="http://www.w3.org/1999/xlink">
    <!-- Generator: Sketch 39.1 (31720) - http://www.bohemiancoding.com/sketch -->
    <title>Page 1</title>
    <desc>Created with Sketch.</desc>
    <defs></defs>
    <g id="Page-1" stroke="none" stroke-width="1" fill="none" fill-rule="evenodd">
        <g>
            <path d="M129.926482,188.29172 C131.110763,188.29172 132.055899,189.255377 132.055899,190.462537 C132.055899,191.684405 131.110763,192.638257 129.915043,192.638257 C128.731852,192.638257 127.763292,191.684405 127.763292,190.462537 C127.763292,189.255377 128.731852,188.29172 129.915043,188.29172 L129.926482,188.29172 Z M129.915043,188.627829 C128.961735,188.627829 128.180023,189.446039 128.180023,190.462537 C128.180023,191.491564 128.961735,192.304327 129.926482,192.304327 C130.89123,192.314677 131.664226,191.491564 131.664226,190.470163 C131.664226,189.446039 130.89123,188.627829 129.926482,188.627829 L129.915043,188.627829 Z M129.51084,191.721992 L129.123525,191.721992 L129.123525,189.300591 C129.328895,189.272809 129.521191,189.247751 129.810996,189.247751 C130.177611,189.247751 130.419479,189.320747 130.562747,189.428607 C130.705471,189.533743 130.787183,189.699346 130.787183,189.930319 C130.787183,190.248996 130.571463,190.442381 130.308895,190.52028 L130.308895,190.537712 C130.523525,190.5753 130.666794,190.768685 130.714187,191.122226 C130.774654,191.50137 130.833486,191.649541 130.868895,191.721992 L130.467416,191.721992 C130.406949,191.649541 130.350296,191.423471 130.300179,191.107518 C130.247883,190.798646 130.089362,190.680981 129.781035,190.680981 L129.51084,190.680981 L129.51084,191.721992 Z M129.51084,190.384638 L129.788117,190.384638 C130.109518,190.384638 130.378078,190.264249 130.378078,189.967907 C130.378078,189.757089 130.227728,189.544093 129.788117,189.544093 C129.666638,189.544093 129.581113,189.553899 129.51084,189.564249 L129.51084,190.384638 Z" id="Fill-1" fill="#221F20"></path>
            <path d="M20.7132451,199.275946 L26.5540233,199.275946 C27.0323113,199.275946 27.4626615,199.172988 27.8516109,198.962171 C28.2367471,198.756257 28.570677,198.465362 28.8479533,198.098747 C29.1263191,197.732677 29.3463969,197.311043 29.5043735,196.834389 C29.6623502,196.357191 29.7413385,195.847852 29.7413385,195.310732 C29.7413385,194.776335 29.6470973,194.269175 29.4591595,193.792521 C29.2717665,193.315868 29.0211829,192.899136 28.715035,192.542872 C28.4039844,192.183883 28.0488093,191.900615 27.6407938,191.691977 C27.2344125,191.48116 26.8127782,191.378202 26.3748016,191.378202 L20.7132451,191.378202 L20.7132451,199.275946 Z M17.3744903,209.587463 L17.3744903,188.427307 L26.5845292,188.427307 C27.5367471,188.427307 28.4165136,188.627774 29.2216498,189.02435 C30.0262412,189.420926 30.7153463,189.945518 31.2922335,190.587774 C31.8669416,191.235479 32.3212607,191.970887 32.6475642,192.794 C32.9749572,193.619292 33.1405603,194.457658 33.1405603,195.310732 C33.1405603,196.028708 33.0403268,196.714 32.8431284,197.368786 C32.6426615,198.026296 32.3664747,198.630965 32.0074864,199.185518 C31.6512218,199.742794 31.2143346,200.227074 30.6973696,200.631276 C30.1804047,201.039837 29.613323,201.341082 28.9988482,201.542093 L33.9751128,209.587463 L30.1880311,209.587463 L25.600716,202.227385 L20.7132451,202.227385 L20.7132451,209.587463 L17.3744903,209.587463 Z" id="Fill-3" fill="#221F20"></path>
            <polygon id="Fill-5" fill="#221F20" points="61.7193541 209.587735 61.7193541 194.359875 55.4318833 205.893805 53.5819222 205.893805 47.2666693 194.359875 47.2666693 209.587735 43.9268249 209.587735 43.9268249 188.427035 47.504179 188.427035 54.5058132 201.36151 61.5096265 188.427035 65.0858911 188.427035 65.0858911 209.587735"></polygon>
            <polygon id="Fill-7" fill="#221F20" points="94.0838132 188.427144 94.0838132 209.587844 90.7145525 209.587844 90.7145525 200.259595 80.0467704 200.259595 80.0467704 209.587844 76.7074708 209.587844 76.7074708 188.427144 80.0467704 188.427144 80.0467704 197.280918 90.7145525 197.280918 90.7145525 188.427144"></polygon>
            <path d="M104.361665,198.856817 C104.361665,197.587012 104.589914,196.322109 105.049136,195.05993 C105.504545,193.797751 106.173494,192.665767 107.058163,191.661798 C107.941743,190.658374 109.019253,189.84779 110.294506,189.234949 C111.563767,188.615572 113.004623,188.311603 114.61544,188.311603 C116.539486,188.311603 118.191704,188.73814 119.560654,189.591759 C120.929603,190.444833 121.963533,191.55884 122.661354,192.929424 L120.037852,194.685689 C119.738786,194.051058 119.382521,193.516661 118.962521,193.079774 C118.547969,192.637984 118.089837,192.294249 117.593027,192.036039 C117.096218,191.777284 116.580342,191.594249 116.042132,191.481486 C115.50937,191.373626 114.99186,191.320786 114.492872,191.320786 C113.378319,191.320786 112.407035,191.544132 111.574117,191.990825 C110.740654,192.437518 110.040654,193.029658 109.473572,193.762342 C108.90758,194.497751 108.479953,195.323588 108.191237,196.237128 C107.902521,197.147946 107.761977,198.063665 107.761977,198.977206 C107.761977,200.011136 107.928669,200.994949 108.266412,201.928646 C108.601432,202.862342 109.075907,203.687634 109.680576,204.402887 C110.285245,205.11814 111.007035,205.687946 111.842677,206.117206 C112.67723,206.543743 113.59077,206.75456 114.585479,206.75456 C115.101354,206.75456 115.631938,206.691914 116.177774,206.561175 C116.723611,206.435883 117.250926,206.225066 117.757541,205.93635 C118.26579,205.647634 118.729914,205.286467 119.159175,204.846856 C119.585712,204.410514 119.935984,203.885922 120.21544,203.268724 L122.984934,204.846856 C122.651549,205.642732 122.172171,206.340553 121.559331,206.947401 C120.938319,207.554794 120.247035,208.066856 119.469136,208.486311 C118.69723,208.902498 117.87684,209.218996 117.014506,209.436895 C116.148903,209.655339 115.299642,209.765922 114.466179,209.765922 C112.975751,209.765922 111.614428,209.447245 110.38221,208.81207 C109.148903,208.17744 108.084467,207.349424 107.191082,206.3253 C106.298786,205.301175 105.603689,204.137051 105.106879,202.837284 C104.61007,201.536973 104.361665,200.209424 104.361665,198.856817" id="Fill-9" fill="#221F20"></path>
            <path d="M124.386568,7.83727626 L124.699253,13.4258366 C123.067735,13.4258366 124.23077,15.5993774 122.835673,15.6772763 C120.349992,23.3614786 112.511626,22.2719844 109.489914,29.4119844 C107.860031,31.6628794 106.383222,33.9137743 106.458397,36.863035 L104.985401,38.0298833 C105.140654,38.491284 105.76221,38.4161089 106.071626,38.4161089 L106.071626,39.8891051 L103.508591,39.8891051 C101.646101,34.2253696 107.00151,28.7168872 104.596451,22.7388327 C100.63723,17.6171206 91.9468794,13.4258366 96.0586304,5.972607 C96.9934163,6.28638132 97.6901479,5.12171206 97.9222101,4.49961089 C98.0001089,4.11338521 97.6901479,3.95486381 97.5343502,3.72389105 C99.5520934,0.772996109 103.665479,1.70614786 106.458397,1.47299611 C107.468358,1.62879377 108.244078,2.63766537 109.098241,3.33766537 C111.193883,2.09564202 111.969603,-0.0806225681 115.072482,0.772996109 L115.773572,-3.09652865e-14 C119.34221,1.70614786 124.542366,2.63766537 124.386568,7.83727626" id="Fill-11" fill="#E32B26"></path>
            <path d="M120.972311,6.75066926 C121.282272,8.92148638 121.361261,12.026 120.27449,14.2017198 C119.732467,14.9768949 117.635735,15.3636654 117.635735,16.7636654 L116.936825,16.7636654 L108.322739,24.6009416 C107.776903,18.9372062 102.502117,17.6924591 100.171689,13.0370506 C98.0804047,12.6481012 98.5434397,10.1662335 99.0086537,8.92148638 C100.018615,7.29269261 101.337447,5.50864591 103.123128,4.49977432 C105.375658,3.64615564 107.468576,5.50864591 107.935424,7.83743969 C110.106241,8.22638911 109.641572,12.026 112.047175,10.7861556 C113.290833,9.70210895 112.901883,8.76841245 112.436125,7.44849027 C111.894101,6.75066926 110.882506,6.05284825 111.659315,4.88872374 C114.295891,3.25720623 119.964529,2.71518288 120.972311,6.75066926" id="Fill-13" fill="#FEFEFE"></path>
            <path d="M71.6307549,30.1672763 C73.2154241,34.6194942 77.9699767,37.3372374 81.4383813,40.2783268 C86.1161245,43.4454864 90.0421167,46.9939689 94.4916109,50.0881323 C97.7388482,46.6175486 95.4743346,40.2031518 98.4165136,36.278249 C100.529588,34.6946693 102.037992,38.014358 104.227331,39.2215175 C106.341494,38.8429183 109.280405,40.1279767 110.413479,38.0900778 C111.093323,38.3935019 112.299393,39.2215175 112.224218,39.9019066 C106.714101,43.8998054 108.14842,51.8220623 105.358226,56.9519455 C105.813634,58.7637743 104.527486,59.8200389 104.981261,61.6296887 C110.038148,67.8931907 117.281105,72.0441634 123.465619,77.2514008 C124.523518,76.7970817 125.351533,77.9290661 125.578693,78.6846304 C125.050288,78.6094553 124.825852,79.2865759 124.145463,79.0610506 C121.805774,86.682607 122.864763,93.9277432 120.902039,100.791012 C122.560794,101.772101 120.902039,103.205331 120.902039,104.41249 C122.259549,112.488366 118.11021,120.636693 121.65379,128.636848 C122.108109,130.143074 120.826864,131.274514 121.27737,132.258327 C120.525619,136.484475 122.713868,143.124942 121.27737,147.498716 C121.732778,148.555525 121.42772,150.36463 120.902039,151.875759 C121.27737,158.666576 120.598615,164.175058 120.525619,170.285486 C120.826864,171.342296 122.184374,172.39856 123.090288,171.414747 C123.313634,172.320661 121.65379,173.83179 121.957214,175.041128 C116.827875,175.192023 110.413479,174.810156 104.981261,173.906965 C90.1151128,175.490545 73.6686537,177.452724 59.7078755,173.60572 C47.4074864,174.58463 36.2434397,174.96323 24.1702101,173.2293 C23.4925447,174.58463 21.7569805,173.678716 20.5487315,173.906965 C19.4172918,172.095136 18.1322335,175.041128 16.9250739,172.850156 C19.341572,168.248132 15.8688093,163.718016 18.0570584,158.741751 C18.5108327,147.953035 18.5108327,136.103152 19.4924669,125.013191 L19.8710661,125.013191 C20.0192374,117.542529 22.3594708,111.8107 21.6796265,104.41249 C22.5103658,98.0002724 21.7569805,91.8119455 20.9251518,85.1742023 C20.2453074,84.117393 18.1322335,84.8729572 18.4356576,83.0611284 C17.8309883,80.8728794 22.0571362,80.1924903 21.301572,77.2514008 C21.906786,76.5715564 23.0382257,76.9501556 23.868965,76.8700778 C25.5293541,73.705642 28.4715331,71.517393 30.7349572,68.8770039 C35.0368249,66.1592607 36.6176809,61.3284436 41.2213385,59.1401946 C48.8418054,51.2201167 58.500716,45.5607393 64.3856187,36.6546693 C66.4235175,35.0710895 67.404607,33.3366148 68.0092763,30.8471206 C65.670677,30.6188716 66.6495875,28.8097665 66.9530117,27.2261868 L69.4414163,27.2261868 C69.364607,27.602607 69.6669416,27.8259533 69.8211051,27.9790272 C71.70593,28.0542023 71.8557354,25.1882879 74.1954241,25.7907782 L71.6307549,30.1672763 Z" id="Fill-15" fill="#221F20"></path>
            <path d="M73.0637665,37.0308716 C76.15793,38.6923502 78.1958288,42.0899377 81.8173074,43.2219222 C81.8173074,44.6551518 83.7015875,45.4831673 84.3068016,46.0878366 C86.192716,48.4269805 89.0580856,50.0127393 90.4924047,51.8975642 C95.5503813,55.2929728 98.4162957,59.3682257 100.979875,64.1990428 C107.772327,68.7264358 112.452249,74.4582646 119.087813,78.6844125 C118.563222,82.8353852 118.563222,86.8305603 119.087813,90.6072918 C118.260887,91.2876809 119.166802,93.5511051 118.334973,94.6051907 C117.582132,95.8123502 116.827658,98.0005992 117.657307,99.6593541 L116.900654,99.6593541 C117.204078,104.490171 116.900654,110.754218 115.469058,114.899743 C116.450148,118.373051 114.862755,122.29523 116.900654,125.768537 C117.128903,140.253907 116.751393,155.044879 115.845479,169.981844 C115.315984,170.887759 113.658319,169.605424 113.658319,171.040833 L112.902755,171.040833 C111.844856,168.84986 109.885401,170.734685 107.849681,169.981844 C100.979875,170.50916 94.1890584,172.320988 86.4972296,172.094918 C79.6263346,172.320988 72.9858677,171.944568 66.575284,171.040833 L66.575284,170.664412 C61.6692918,169.229004 56.0867237,170.285813 51.0298366,170.664412 C44.9929494,172.398342 38.1280467,170.43344 31.4151284,171.040833 L31.4151284,170.664412 C30.0538054,170.132739 28.092716,170.132739 26.733572,170.664412 L26.733572,171.040833 C26.4339611,169.981844 24.8476576,170.43344 23.8692918,170.285813 C24.0948171,171.040833 21.831393,170.210093 20.9254786,169.981844 C21.2278132,147.499043 23.0385525,121.693284 24.9244669,98.6025447 C23.412249,93.0188872 23.2651673,85.4000545 24.9244669,79.740677 C28.3939611,77.3993541 29.6032996,73.2511051 33.6011984,71.0655798 C43.4850895,57.3308716 59.2560623,50.6904047 67.6293696,35.5981868 C69.3649339,31.9794319 71.8555175,36.0519611 73.0637665,37.0308716" id="Fill-17" fill="#FEFEFE"></path>
            <path d="M107.472226,41.7112296 C106.792381,43.9746537 107.167167,47.8995564 104.981642,49.7092062 L103.169268,57.7071829 C101.964833,58.010607 102.264988,57.2555875 101.735494,56.5751984 C100.153004,54.1608794 97.3611751,54.1608794 96.3032763,51.521035 C97.4341712,47.7464825 97.8116809,43.6712296 99.1719144,39.9015798 C102.415339,39.3720856 104.074093,43.7491284 107.472226,41.7112296" id="Fill-19" fill="#FEFEFE"></path>
            <path d="M85.5814553,71.5272529 C90.9820778,78.654179 97.9357743,83.5934008 106.817331,84.5418054 C108.143245,84.5216498 109.383089,84.3914553 110.625658,84.2105992 C111.083245,84.2056965 111.452584,84.5995486 111.50379,85.1137899 L111.138809,86.2027393 L97.8518833,106.136669 C97.204179,107.501805 95.3689261,106.495113 95.0600545,107.995891 L94.4728171,109.265696 C95.332428,110.881961 95.6674475,113.110521 95.0012218,114.676669 C93.1240233,117.597603 90.2532062,119.755891 89.2503268,123.123518 C89.6104047,125.610833 91.186358,127.658537 91.9707938,130.032545 C92.6707938,131.686397 92.9507938,133.448109 92.9132062,135.33021 C94.2456576,134.802895 96.1326615,133.768965 97.3703268,135.16951 C98.4669027,136.454568 98.1705603,138.361728 97.4678366,139.772078 C96.3935953,141.804529 93.8768638,142.979004 91.9321167,144.060872 C91.466358,145.644451 91.4222335,147.579393 89.7999767,148.487486 C88.709393,149.192934 87.4722724,149.323128 86.1784981,149.501261 C85.7732062,150.98951 84.7207549,152.312156 83.1142957,152.555658 C83.0494708,153.722506 83.199821,155.268498 82.0580311,155.971222 C81.2125837,156.751844 80.1209105,156.947409 79.0188872,156.736591 C78.8004436,158.39807 77.882,159.938615 76.2984202,160.440872 L74.6511051,160.581416 C73.2821556,162.021728 71.3886148,162.087097 69.5342957,161.745541 C68.504179,161.334257 67.5203658,160.985074 66.7473696,160.039393 C65.1501712,160.18484 63.5437121,159.457058 62.7434786,158.254802 C62.2025447,157.539549 61.8310272,156.686475 61.5058132,155.885696 C59.2298599,155.657447 57.5482257,153.599393 57.0416109,151.559315 L56.6613774,149.273012 C52.632428,145.707097 53.4217665,139.408187 55.0979533,134.933634 L57.0149183,130.587097 C55.5887704,127.535424 53.7279144,124.747409 52.1454241,121.72842 C51.1904825,121.580249 49.9522724,121.708265 49.3808327,120.784918 L44.9041012,112.578304 C43.9807549,112.126708 42.8749183,111.966008 42.315463,110.939704 L31.3360856,90.8004047 C31.0441012,90.1554241 31.3349961,89.3197821 31.5970195,88.7352685 L32.8542957,87.892 C36.9987315,87.2895097 41.2303268,86.2882646 44.3468249,82.7272529 C45.7522724,81.4372918 47.3184202,79.0458521 49.5001323,80.1827393 L50.1968638,80.8680311 L61.7956187,101.932856 C61.9601323,102.818615 60.8897043,103.323051 61.5259689,104.100949 L65.2237121,111.464296 C65.7608327,112.69379 64.1674475,113.808342 65.4448794,114.804685 L65.8000545,114.327486 C66.6416887,111.559626 67.7911051,108.254646 66.9690817,105.262895 C67.2038677,101.917603 70.9043346,100.663051 73.535463,99.8551907 L74.7251907,97.6794708 C74.1542957,96.7534008 73.8143735,95.596358 74.2784981,94.5199377 C77.5535175,86.8406381 80.918965,79.2719222 84.2386537,71.647642 C84.5889261,71.223284 85.1935953,71.2864747 85.5814553,71.5272529" id="Fill-21" fill="#221F20"></path>
            <path d="M107.800926,86.9359144 C107.688163,87.5356809 107.169564,88.0978599 106.808397,88.6725681 C97.8516654,89.9625292 90.182716,84.5444747 84.3991362,78.144786 C84.5375019,77.2917121 84.9177354,76.56393 85.2952451,75.8383268 C91.1904981,82.1475875 98.3713541,87.8216732 107.800926,86.9359144" id="Fill-23" fill="#E32B26"></path>
            <path d="M104.80084,91.3752218 C104.637416,91.9728093 104.178195,92.4870506 103.819751,93.013821 C95.1103346,93.3575564 88.0656654,88.820358 82.3665214,82.6347549 C82.632358,81.996856 82.7571051,81.296856 83.2174163,80.7826148 C88.9792062,86.8707082 95.9394397,91.7091518 104.80084,91.3752218" id="Fill-25" fill="#FEFEFE"></path>
            <path d="M102.153206,95.345393 C101.796942,95.8699844 101.515852,97.1169105 100.556008,97.0194008 C92.2981868,96.9540311 85.8222335,92.8809572 80.2914163,87.5255486 C80.4232451,86.7225914 80.7506381,85.9920856 81.1820778,85.269751 C86.9090039,90.6948872 93.50807,95.5965214 102.153206,95.345393" id="Fill-27" fill="#E32B26"></path>
            <path d="M58.5535019,101.709619 C58.6477432,104.322226 55.7202724,105.503782 53.9362257,107.010008 L50.0549027,109.067518 C49.8054086,109.504405 49.5994942,110.043704 49.9132685,110.480591 C51.4265759,112.167128 53.1354475,109.888451 54.6111673,109.426506 C56.393035,108.430163 58.0027626,107.165261 59.5073541,105.890553 L63.0830739,112.42316 C62.410856,114.546039 60.1218288,116.001603 58.3263424,117.095455 C56.1822179,118.154444 53.9449416,119.562615 51.495214,119.060903 C49.6496109,116.119268 48.1237743,113.055066 46.3271984,110.118879 C45.4185603,110.028996 44.4222179,109.772965 44.0643191,108.768996 L34.2332685,90.9410584 C34.0905447,90.3140545 34.8597276,90.2884514 35.1871206,90.0678288 C39.9803502,89.5786459 44.4396498,86.3586459 47.8917121,82.9806693 L48.4876654,83.1413696 L58.5535019,101.709619 Z" id="Fill-29" fill="#E32B26"></path>
            <path d="M99.5294319,99.1097588 C99.3060856,99.8021323 98.8920778,100.371938 98.4263191,100.939019 C90.3983813,101.096996 83.9088093,97.1775409 78.4090428,92.0302257 C78.3850739,91.2120156 78.8720778,90.4439222 79.2523113,89.7166848 C84.9062412,94.8814319 91.2732451,99.0416654 99.5294319,99.1097588" id="Fill-31" fill="#FEFEFE"></path>
            <path d="M96.7953463,102.966895 C96.8340233,103.584093 96.2358911,103.930553 95.8818054,104.405027 C88.3283424,104.457868 82.1509105,100.928996 76.7878755,96.4571673 C76.4441401,95.8121868 76.8810272,95.0364669 77.1871751,94.5069728 C82.6978366,99.0419922 88.9504436,102.838879 96.7953463,102.966895" id="Fill-33" fill="#E32B26"></path>
            <path d="M92.7247782,106.891798 C92.3723268,108.339735 91.4598755,109.827984 89.9089805,110.538335 C86.8850895,112.169307 83.110537,111.639813 80.1482023,110.164093 C77.8973074,108.716156 75.595751,107.258412 75.4328716,104.332031 C75.3413541,102.690708 76.0010428,101.225339 76.7876576,99.9805914 C81.4920934,103.413588 86.7456342,105.98316 92.7247782,106.891798" id="Fill-35" fill="#E32B26"></path>
            <path d="M72.6848405,103.74986 C72.1738677,106.80916 74.1229728,109.709938 76.5672529,111.283712 C80.3162023,114.059198 86.5137899,115.34916 90.7737121,113.075385 L92.3997821,112.11663 C92.7734786,112.460366 92.8541012,113.185969 92.6443735,113.725268 C90.972,116.666358 88.3860856,119.058342 87.0470973,122.190093 C86.4674864,126.92558 90.8690428,130.330794 90.2779922,135.169237 C90.0018054,138.406669 89.8247626,141.701844 89.0948016,144.896241 C88.7058521,141.132039 86.1809494,136.845969 82.5387704,134.998732 C81.5974475,134.753051 80.8032062,135.028693 80.0552685,135.362623 C79.3890428,135.90737 78.9614163,136.574685 78.6874086,137.262156 C77.7705992,136.763167 76.8053074,137.227292 75.9674864,137.447914 C74.5053852,138.268848 73.7514553,139.671572 73.7803268,141.410405 C72.4614942,141.839665 71.415035,143.114918 71.2265525,144.469704 C71.3371362,145.398498 71.0734786,146.495074 71.552856,147.308381 C69.0383035,150.474996 70.0095875,155.012739 71.5179922,158.274685 L72.4249961,159.386514 C71.8137899,159.886047 70.859393,159.740599 70.1730117,159.467136 C67.1562023,158.03663 67.3218054,154.33235 67.5288093,151.291027 C67.4601712,149.445969 68.7751907,147.027292 67.4438288,145.56628 C66.8097432,145.250327 66.2001712,145.747136 65.99807,146.239043 C65.0747237,149.82021 64.2891984,154.076319 65.3105992,157.597564 C63.1043735,156.199743 62.8799377,153.373595 63.073323,150.944568 C63.1833619,147.842778 64.0353463,144.971961 64.6830506,142.073362 C64.7331673,141.571105 64.4662412,141.187603 64.0930895,140.841144 C63.4671751,140.47235 62.8510661,141.024179 62.5961245,141.508459 C61.3067082,145.205113 60.8371362,149.338654 60.9498988,153.278265 C59.754179,153.004802 59.3477977,151.483868 58.9926226,150.430327 C58.4860078,146.858965 59.7182257,143.255463 60.4683424,139.862233 C60.4231284,139.297875 60.4530895,138.481844 59.7029728,138.356553 C57.800716,138.472039 57.9221946,140.830794 57.3186148,142.246591 L56.8043735,145.820132 C55.1908327,143.61663 55.9910661,140.226125 56.5646848,137.583556 C59.0754241,130.895696 63.0368249,125.020599 66.325463,118.721689 C67.8088093,115.143245 69.9997821,111.639977 69.7159689,107.376241 C69.4070973,106.379899 69.5977588,105.019665 70.1501323,104.106125 C70.8741012,103.463868 71.7288093,103.09235 72.6118444,102.924023 L72.6848405,103.74986 Z" id="Fill-37" fill="#FFC628"></path>
            <path d="M64.1372685,117.682856 C62.4986693,121.241689 60.5789805,124.619121 58.6048171,127.992195 L58.4533774,127.976942 L54.8820156,121.392039 C57.7718988,120.051961 60.769642,118.669393 63.3490195,116.378187 C63.7308872,116.623868 63.8725214,117.248693 64.1372685,117.682856" id="Fill-39" fill="#FEFEFE"></path>
            <path d="M70.8566148,124.380848 C70.7852529,125.597813 70.3145914,126.724895 70.3080545,127.796412 C71.5015953,126.079914 72.7539689,123.80614 74.7777043,122.942716 C75.3850973,123.000459 75.7413619,123.495089 75.8993385,123.971743 C76.4544358,128.569409 75.1116342,133.279837 73.6282879,137.367619 C73.1342023,137.212366 72.6117899,136.800537 72.1438521,136.399058 C73.0208949,133.27221 74.4454086,130.253222 74.8959144,126.830031 C74.9258755,126.017268 75.5054864,124.85042 74.7967704,124.268086 C73.3363035,125.091198 72.7201946,126.662249 71.7712451,127.944584 C70.7727237,129.781471 69.8602724,131.731121 69.0082879,133.583261 C68.5103891,132.970965 66.4060311,132.604895 67.3947471,131.379759 C68.6542023,128.496412 69.880428,125.455089 70.1222957,122.06186 C69.9392607,121.841237 69.6254864,121.91151 69.4615175,122.047152 C66.9627626,124.549175 65.3366926,127.50007 63.808677,130.506529 L62.4310117,129.500381 C64.4411284,126.283105 66.1472763,122.528708 69.8090661,120.604117 C70.2154475,120.643883 70.4159144,120.664039 70.6948249,120.945128 C71.3092996,121.926763 70.8631518,123.309331 70.8566148,124.380848" id="Fill-41" fill="#221F20"></path>
            <path d="M96.0712685,137.438054 C96.1916576,139.285292 94.2594397,140.213541 92.9656654,140.896109 C92.8076887,140.931518 92.4388949,141.049183 92.520607,140.753385 L92.7815409,138.178366 C93.7501012,137.661401 94.6369494,136.983735 95.7171829,136.891128 L96.0712685,137.438054 Z" id="Fill-43" fill="#FEFEFE"></path>
            <path d="M85.9942646,142.233899 C86.4709183,143.558724 87.6693619,145.363471 86.3140311,146.655611 C86.0607237,146.630553 85.9278054,146.924171 85.6870272,146.798879 C84.5577665,143.825105 83.016677,140.913977 80.5500623,138.524716 C80.7053152,138.027907 80.6704514,137.360047 81.3127082,137.069152 C83.9362101,137.332809 84.8083502,140.331642 85.9942646,142.233899" id="Fill-45" fill="#FEFEFE"></path>
            <path d="M81.5836654,143.47614 C82.2237432,145.731938 85.4181401,148.452405 82.6551829,150.522988 C81.192537,147.363455 79.0576732,144.77863 76.1356498,141.852249 C75.8807082,141.317852 76.0087237,140.565012 76.2636654,140.078008 C76.5610973,139.651471 76.986,139.488591 77.4027315,139.375284 C79.4591518,139.739175 80.5170506,141.887658 81.5836654,143.47614" id="Fill-47" fill="#FEFEFE"></path>
            <path d="M78.7089261,147.677066 C79.8071362,149.415899 80.6939844,151.240802 81.0077588,153.210607 C80.9914163,153.875743 80.4820778,154.385082 79.9449572,154.63621 L78.7443346,154.412864 C77.7877588,151.767572 77.2648016,147.832864 73.8770195,147.032086 C73.3965525,146.221502 73.1051128,145.067183 73.5654241,144.043058 C74.0246459,143.526093 74.8352296,143.611619 75.3086148,143.962981 C76.7200545,144.615588 77.927214,146.319556 78.7089261,147.677066" id="Fill-49" fill="#FEFEFE"></path>
            <path d="M75.184358,150.788934 C76.011284,152.658506 76.4318288,154.588545 76.4705058,156.683642 C76.3185214,157.228389 75.9361089,157.956171 75.2170428,157.983953 C73.2069261,157.730101 73.1415564,155.326132 72.4687938,153.880374 C72.1441245,152.572981 72.2133074,150.89407 72.8931518,149.689634 C73.7903502,148.911735 74.8607782,149.938039 75.184358,150.788934" id="Fill-51" fill="#FEFEFE"></path>
            <path d="M129.223759,171.264342 L129.703136,171.264342 C130.247883,171.264342 130.708195,171.066054 130.708195,170.556716 C130.708195,170.192825 130.444537,169.831658 129.703136,169.831658 C129.489595,169.831658 129.341969,169.849089 129.223759,169.863798 L129.223759,171.264342 Z M129.223759,173.558272 L128.56516,173.558272 L128.56516,169.419829 C128.911074,169.369712 129.243914,169.319595 129.739634,169.319595 C130.362825,169.319595 130.774654,169.452514 131.023058,169.63337 C131.271463,169.816405 131.402202,170.09477 131.402202,170.489167 C131.402202,171.03337 131.036677,171.3673 130.593798,171.495315 L130.593798,171.530179 C130.956599,171.595549 131.203914,171.926755 131.286716,172.536872 C131.38586,173.179128 131.486093,173.427533 131.549829,173.558272 L130.858545,173.558272 C130.761035,173.427533 130.658078,173.04621 130.576366,172.504187 C130.478311,171.974693 130.215198,171.778584 129.686794,171.778584 L129.223759,171.778584 L129.223759,173.558272 Z M129.917767,168.26551 C128.286249,168.26551 126.946171,169.666054 126.946171,171.397261 C126.946171,173.161696 128.286249,174.546988 129.931385,174.546988 C131.584148,174.56442 132.90407,173.161696 132.90407,171.414693 C132.90407,169.666054 131.584148,168.26551 129.931385,168.26551 L129.917767,168.26551 Z M129.931385,167.688078 C131.961658,167.688078 133.579012,169.334304 133.579012,171.397261 C133.579012,173.492903 131.961658,175.123875 129.917767,175.123875 C127.888584,175.123875 126.241268,173.492903 126.241268,171.397261 C126.241268,169.334304 127.888584,167.688078 129.917767,167.688078 L129.931385,167.688078 Z" id="Fill-53" fill="#221F20"></path>
            <path d="M7.97144747,230.567089 C7.12872374,231.440864 6.15689494,231.877751 5.05705058,231.877751 C4.35814008,231.877751 3.70063035,231.723588 3.08343191,231.415261 C2.46732296,231.106934 1.92965759,230.692926 1.47261479,230.173782 C1.01502724,229.655183 0.655494163,229.056506 0.39292607,228.377751 C0.130902724,227.698996 0.000163424125,226.995183 0.000163424125,226.265767 C0.000163424125,225.51565 0.130902724,224.808568 0.39292607,224.145611 C0.655494163,223.482109 1.01992996,222.901953 1.4878677,222.402965 C1.95580545,221.905066 2.50545525,221.50849 3.13736187,221.215961 C3.76981323,220.922887 4.45564981,220.77635 5.19596109,220.77635 C6.19284825,220.77635 7.04646693,220.99207 7.75572763,221.424054 C8.46498833,221.856039 8.99938521,222.436195 9.35891829,223.166156 L7.77098054,224.337907 C7.50350973,223.79316 7.13635019,223.376973 6.66841245,223.088802 C6.20101946,222.80172 5.68405447,222.657362 5.11915175,222.657362 C4.66646693,222.657362 4.25790661,222.755416 3.89347082,222.950436 C3.52794553,223.146 3.21689494,223.412926 2.96031907,223.752304 C2.70319844,224.091136 2.50273152,224.482265 2.35891829,224.924054 C2.21510506,225.365844 2.14319844,225.833782 2.14319844,226.327323 C2.14319844,226.841019 2.22000778,227.321486 2.37471595,227.768724 C2.52887938,228.215961 2.74459922,228.603821 3.02187549,228.932848 C3.2996965,229.261875 3.62545525,229.521175 4.00078599,229.711837 C4.37611673,229.901409 4.79012451,229.996739 5.24226459,229.996739 C6.24950195,229.996739 7.15922957,229.498296 7.97144747,228.501409 L7.97144747,227.730047 L5.76685603,227.730047 L5.76685603,226.17316 L9.7293463,226.17316 L9.7293463,231.800942 L7.97144747,231.800942 L7.97144747,230.567089 Z" id="Fill-55" fill="#626366"></path>
            <path d="M16.6985681,225.510093 C16.0715642,225.520444 15.5110195,225.640833 15.0180233,225.87235 C14.5244825,226.103868 14.1698521,226.450872 13.9541323,226.912817 L13.9541323,231.800833 L11.8879066,231.800833 L11.8879066,223.721689 L13.7841712,223.721689 L13.7841712,225.448537 C14.0619922,224.892895 14.424249,224.446202 14.8714864,224.106825 C15.3187237,223.767992 15.7888405,223.598031 16.2823813,223.598031 C16.395144,223.598031 16.4801245,223.600755 16.5367782,223.605658 C16.5928872,223.611105 16.6468171,223.618732 16.6985681,223.629082 L16.6985681,225.510093 Z" id="Fill-57" fill="#626366"></path>
            <path d="M24.2537198,227.082615 C24.2019689,226.476311 23.9786226,225.990397 23.5831362,225.625416 C23.1871051,225.260436 22.7066381,225.077946 22.1411907,225.077946 C21.8639144,225.077946 21.60407,225.126973 21.3627471,225.224482 C21.1208794,225.322537 20.9078833,225.458724 20.7226693,225.633588 C20.5374553,225.807907 20.3860156,226.018724 20.2678054,226.265494 C20.1495953,226.512265 20.0798677,226.784638 20.0597121,227.082615 L24.2537198,227.082615 Z M22.1564436,231.954833 C21.5087393,231.954833 20.9231362,231.844249 20.3990895,231.623626 C19.8744981,231.402459 19.4278054,231.101759 19.0573774,230.721525 C18.6874942,230.341292 18.4020467,229.899502 18.2015798,229.395611 C18.0011128,228.89172 17.9008794,228.36277 17.9008794,227.807128 C17.9008794,227.231331 17.9989339,226.689307 18.1939533,226.180514 C18.3889728,225.67172 18.6716965,225.224482 19.0421245,224.839346 C19.4120078,224.453665 19.8614241,224.148062 20.391463,223.921447 C20.9204125,223.695922 21.5141868,223.582615 22.1722412,223.582615 C22.829751,223.582615 23.4180778,223.695922 23.9372218,223.921447 C24.4563658,224.148062 24.8987004,224.451486 25.2636809,224.831175 C25.6281167,225.211409 25.9059377,225.654288 26.0960545,226.157634 C26.2861712,226.661525 26.3815019,227.185027 26.3815019,227.729774 C26.3815019,227.864327 26.3787782,227.992342 26.3738755,228.115455 C26.368428,228.239113 26.3553541,228.34207 26.3351984,228.424327 L20.0902179,228.424327 C20.1212685,228.743004 20.1986226,229.025183 20.3217354,229.272498 C20.445393,229.518724 20.6044591,229.729541 20.8000233,229.904405 C20.9950428,230.079268 21.2162101,230.212732 21.4629805,230.305339 C21.709751,230.397401 21.9663268,230.443704 22.2337977,230.443704 C22.644537,230.443704 23.0329416,230.343471 23.3979222,230.143004 C23.7629027,229.942537 24.0118521,229.678335 24.1458599,229.349307 L25.9190117,229.842304 C25.6204903,230.458957 25.1454708,230.965572 24.4923191,231.361058 C23.8397121,231.757089 23.0612685,231.954833 22.1564436,231.954833 L22.1564436,231.954833 Z" id="Fill-59" fill="#626366"></path>
            <path d="M30.9915331,230.44365 C31.340716,230.44365 31.6724669,230.382638 31.9862412,230.258981 C32.2994708,230.135868 32.5435175,229.971354 32.7183813,229.76544 C32.9444514,229.591121 33.0577588,229.395556 33.0577588,229.179837 L33.0577588,228.254311 C32.8109883,228.162249 32.5435175,228.087619 32.2558911,228.030965 C31.9677198,227.974856 31.6904436,227.945984 31.4229728,227.945984 C30.8885759,227.945984 30.4516887,228.066918 30.112856,228.308241 C29.7734786,228.549564 29.6040623,228.855712 29.6040623,229.22614 C29.6040623,229.575323 29.7375253,229.865673 30.0044514,230.096646 C30.2719222,230.328163 30.6009494,230.44365 30.9915331,230.44365 M30.4053852,231.954778 C30.0148016,231.954778 29.6503658,231.890498 29.3109883,231.762482 C28.9716109,231.633922 28.678537,231.453611 28.4323113,231.222638 C28.1855409,230.991121 27.9927004,230.721471 27.8537899,230.412599 C27.7148794,230.104817 27.6456965,229.76544 27.6456965,229.395556 C27.6456965,229.015323 27.730677,228.662872 27.9000934,228.339292 C28.0695097,228.015712 28.30593,227.740615 28.6093541,227.514545 C28.9127782,227.288475 29.275035,227.110887 29.6966693,226.982327 C30.1177588,226.853767 30.580249,226.789486 31.0841401,226.789486 C31.4436732,226.789486 31.7955798,226.820537 32.1404047,226.882093 C32.4846848,226.94365 32.7902879,227.031354 33.0577588,227.144117 L33.0577588,226.681626 C33.0577588,226.14723 32.9057743,225.735946 32.6028949,225.448319 C32.2994708,225.160693 31.8495097,225.016335 31.2535564,225.016335 C30.821572,225.016335 30.4004825,225.093689 29.9891984,225.247852 C29.5779144,225.402016 29.1568249,225.628086 28.7248405,225.926062 L28.0929339,224.615946 C29.130677,223.92684 30.2517665,223.58256 31.4540233,223.58256 C32.6154241,223.58256 33.5175253,223.868008 34.1597821,224.438358 C34.8025837,225.008708 35.1234397,225.833455 35.1234397,226.913144 L35.1234397,229.426607 C35.1234397,229.641782 35.1648405,229.79649 35.2470973,229.888553 C35.3293541,229.98116 35.4731673,230.032911 35.678537,230.043261 L35.678537,231.800615 C35.4835175,231.841471 35.3010272,231.869798 35.1316109,231.885051 C34.9621946,231.900848 34.8156576,231.908475 34.692,231.908475 C34.3014163,231.898125 34.0034397,231.808241 33.7975253,231.638825 C33.5921556,231.469409 33.4635953,231.240615 33.4123891,230.952988 L33.3660856,230.505206 C33.0060078,230.978047 32.5691206,231.338125 32.0554241,231.584895 C31.5411829,231.831665 30.9915331,231.954778 30.4053852,231.954778" id="Fill-61" fill="#626366"></path>
            <path d="M42.3549027,231.38421 C42.0770817,231.507868 41.7355253,231.630981 41.3296887,231.754638 C40.9233074,231.877751 40.4994942,231.939852 40.0577043,231.939852 C39.7695331,231.939852 39.4998833,231.903354 39.2476654,231.831447 C38.9959922,231.759541 38.7748249,231.644599 38.5852529,231.484988 C38.3945914,231.325377 38.2431518,231.120008 38.1303891,230.86779 C38.0170817,230.616117 37.960428,230.310514 37.960428,229.950436 L37.960428,225.309735 L36.9117899,225.309735 L36.9117899,223.721798 L37.960428,223.721798 L37.960428,221.09993 L40.0266537,221.09993 L40.0266537,223.721798 L41.738249,223.721798 L41.738249,225.309735 L40.0266537,225.309735 L40.0266537,229.256973 C40.0266537,229.544599 40.103463,229.74779 40.2576265,229.866 C40.4123346,229.98421 40.5970039,230.043043 40.8127237,230.043043 C41.0289883,230.043043 41.2392607,230.007089 41.4451751,229.935183 C41.6505447,229.863276 41.8150584,229.80172 41.938716,229.749969 L42.3549027,231.38421 Z" id="Fill-63" fill="#626366"></path>
            <path d="M49.7866148,227.082615 C49.7348638,226.476311 49.5115175,225.990397 49.1160311,225.625416 C48.72,225.260436 48.2395331,225.077946 47.6740856,225.077946 C47.3968093,225.077946 47.136965,225.126973 46.895642,225.224482 C46.6537743,225.322537 46.4407782,225.458724 46.2555642,225.633588 C46.0703502,225.807907 45.9189105,226.018724 45.8007004,226.265494 C45.6824903,226.512265 45.6127626,226.784638 45.592607,227.082615 L49.7866148,227.082615 Z M47.6893385,231.954833 C47.0416342,231.954833 46.4560311,231.844249 45.9319844,231.623626 C45.407393,231.402459 44.9607004,231.101759 44.5902724,230.721525 C44.2203891,230.341292 43.9349416,229.899502 43.7344747,229.395611 C43.5340078,228.89172 43.4337743,228.36277 43.4337743,227.807128 C43.4337743,227.231331 43.5318288,226.689307 43.7268482,226.180514 C43.9218677,225.67172 44.2045914,225.224482 44.5750195,224.839346 C44.9449027,224.453665 45.3943191,224.148062 45.924358,223.921447 C46.4533074,223.695922 47.0470817,223.582615 47.7051362,223.582615 C48.3626459,223.582615 48.9509728,223.695922 49.4701167,223.921447 C49.9892607,224.148062 50.4315953,224.451486 50.7965759,224.831175 C51.1610117,225.211409 51.4388327,225.654288 51.6289494,226.157634 C51.8190661,226.661525 51.9143969,227.185027 51.9143969,227.729774 C51.9143969,227.864327 51.9116732,227.992342 51.9067704,228.115455 C51.901323,228.239113 51.888249,228.34207 51.8680934,228.424327 L45.6231128,228.424327 C45.6541634,228.743004 45.7315175,229.025183 45.8546304,229.272498 C45.9782879,229.518724 46.1373541,229.729541 46.3329183,229.904405 C46.5279377,230.079268 46.7491051,230.212732 46.9958755,230.305339 C47.2426459,230.397401 47.4992218,230.443704 47.7666926,230.443704 C48.1774319,230.443704 48.5658366,230.343471 48.9308171,230.143004 C49.2957977,229.942537 49.5447471,229.678335 49.6787549,229.349307 L51.4519066,229.842304 C51.1533852,230.458957 50.6783658,230.965572 50.025214,231.361058 C49.372607,231.757089 48.5941634,231.954833 47.6893385,231.954833 L47.6893385,231.954833 Z" id="Fill-65" fill="#626366"></path>
            <path d="M58.5289339,225.510093 C57.90193,225.520444 57.3413852,225.640833 56.8483891,225.87235 C56.3548482,226.103868 56.0002179,226.450872 55.7844981,226.912817 L55.7844981,231.800833 L53.7182724,231.800833 L53.7182724,223.721689 L55.614537,223.721689 L55.614537,225.448537 C55.892358,224.892895 56.2546148,224.446202 56.7018521,224.106825 C57.1490895,223.767992 57.6192062,223.598031 58.1127471,223.598031 C58.2255097,223.598031 58.3104903,223.600755 58.367144,223.605658 C58.4232529,223.611105 58.4771829,223.618732 58.5289339,223.629082 L58.5289339,225.510093 Z" id="Fill-67" fill="#626366"></path>
            <polygon id="Fill-69" fill="#626366" points="73.562428 220.85365 73.562428 231.800887 71.4493541 231.800887 71.4493541 227.129136 66.4850739 227.129136 66.4850739 231.800887 64.3572918 231.800887 64.3572918 220.85365 66.4850739 220.85365 66.4850739 225.27863 71.4493541 225.27863 71.4493541 220.85365"></polygon>
            <path d="M77.8017588,227.77635 C77.8017588,228.136428 77.8562335,228.462732 77.9640934,228.755805 C78.0714086,229.048335 78.2206693,229.303276 78.410786,229.518451 C78.6009027,229.734716 78.8247938,229.901409 79.0819144,230.019619 C79.3384903,230.138374 79.6157665,230.197206 79.9142879,230.197206 C80.2122646,230.197206 80.4900856,230.138374 80.7466615,230.019619 C81.0037821,229.901409 81.2271284,229.734716 81.4177899,229.518451 C81.6073619,229.303276 81.7571673,229.046156 81.8644825,228.747634 C81.9723424,228.449658 82.0268171,228.121175 82.0268171,227.761097 C82.0268171,227.411914 81.9723424,227.08779 81.8644825,226.789268 C81.7571673,226.491837 81.6073619,226.234716 81.4177899,226.018451 C81.2271284,225.802732 81.0037821,225.636039 80.7466615,225.517829 C80.4900856,225.399619 80.2122646,225.340241 79.9142879,225.340241 C79.6157665,225.340241 79.3384903,225.402342 79.0819144,225.525455 C78.8247938,225.649113 78.6009027,225.817984 78.410786,226.034249 C78.2206693,226.249969 78.0714086,226.507089 77.9640934,226.805066 C77.8562335,227.103588 77.8017588,227.427167 77.8017588,227.77635 M79.9142879,231.955105 C79.2562335,231.955105 78.6651829,231.841798 78.1411362,231.615728 C77.6165447,231.389658 77.1720311,231.08351 76.8075953,230.698374 C76.4426148,230.312693 76.16207,229.868724 75.9670506,229.364833 C75.7714864,228.860942 75.6745214,228.331992 75.6745214,227.77635 C75.6745214,227.211447 75.7714864,226.676506 75.9670506,226.17316 C76.16207,225.669268 76.4426148,225.22421 76.8075953,224.839074 C77.1720311,224.453393 77.6165447,224.148335 78.1411362,223.92172 C78.6651829,223.696195 79.2562335,223.582887 79.9142879,223.582887 C80.5717977,223.582887 81.1606693,223.696195 81.6798132,223.92172 C82.1984125,224.148335 82.6407471,224.453393 83.0057276,224.839074 C83.3707082,225.22421 83.6507082,225.669268 83.8462724,226.17316 C84.0412918,226.676506 84.1393463,227.211447 84.1393463,227.77635 C84.1393463,228.331992 84.0412918,228.860942 83.8462724,229.364833 C83.6507082,229.868724 83.3734319,230.312693 83.0133541,230.698374 C82.6532763,231.08351 82.2120311,231.389658 81.6874397,231.615728 C81.163393,231.841798 80.5717977,231.955105 79.9142879,231.955105" id="Fill-71" fill="#626366"></path>
            <path d="M88.5020078,231.955051 C87.6696342,231.955051 87.0377276,231.688125 86.6057432,231.153183 C86.1743035,230.618786 85.9580389,229.827268 85.9580389,228.77863 L85.9580389,223.721743 L88.0242646,223.721743 L88.0242646,228.331938 C88.0242646,229.575595 88.4709572,230.197152 89.3654319,230.197152 C89.776716,230.197152 90.1700233,230.076763 90.5453541,229.834895 C90.9201401,229.593572 91.2262879,229.225868 91.4627082,228.732327 L91.4627082,223.721743 L93.5289339,223.721743 L93.5289339,229.426335 C93.5289339,229.642054 93.5697899,229.796218 93.6520467,229.888825 C93.7337588,229.981432 93.8781167,230.033183 94.0834864,230.042988 L94.0834864,231.800887 C93.8683113,231.841743 93.6776498,231.87007 93.5131362,231.885323 C93.3486226,231.900576 93.2048093,231.908747 93.0816965,231.908747 C92.7118132,231.908747 92.4209183,231.823767 92.2106459,231.65435 C91.9998288,231.484934 91.8685447,231.251237 91.8173385,230.952716 L91.771035,230.289759 C91.400607,230.844856 90.9359377,231.261588 90.375393,231.538319 C89.815393,231.81614 89.1911128,231.955051 88.5020078,231.955051" id="Fill-73" fill="#626366"></path>
            <path d="M99.3575642,231.955051 C99.028537,231.955051 98.6869805,231.928903 98.3318054,231.877696 C97.9777198,231.82649 97.6301712,231.754584 97.2913385,231.661977 C96.9519611,231.56937 96.6283813,231.456607 96.3200545,231.323144 C96.0111829,231.189681 95.7388093,231.039875 95.5029339,230.875907 L96.3353074,229.472093 C97.3632451,230.141043 98.3552296,230.474428 99.3112607,230.474428 C99.7427004,230.474428 100.082078,230.397619 100.328848,230.243455 C100.575074,230.089292 100.698732,229.868669 100.698732,229.580498 C100.698732,229.292872 100.552195,229.079331 100.259121,228.940965 C99.9660467,228.802054 99.4757743,228.650615 98.7866693,228.486101 C98.2626226,228.362444 97.8153852,228.233883 97.4455019,228.10042 C97.0756187,227.966957 96.7770973,227.812794 96.551572,227.637385 C96.3249572,227.463066 96.1604436,227.262599 96.0574864,227.036529 C95.9550739,226.810459 95.903323,226.542988 95.903323,226.234661 C95.903323,225.823377 95.9861245,225.453494 96.1500934,225.124467 C96.314607,224.79544 96.5434008,224.51544 96.8364747,224.283922 C97.1290039,224.052949 97.4738288,223.875362 97.8698599,223.752249 C98.2648016,223.629136 98.6940623,223.56758 99.1570973,223.56758 C99.7323502,223.56758 100.305424,223.657463 100.876319,223.83723 C101.446669,224.016996 101.978887,224.261043 102.471883,224.56937 L101.623712,225.848981 C101.171572,225.561899 100.745035,225.353261 100.344646,225.2247 C99.9431673,225.09614 99.5422335,225.03186 99.1418444,225.03186 C98.7714163,225.03186 98.4609105,225.104311 98.2086926,225.24758 C97.9570195,225.391938 97.8306381,225.623455 97.8306381,225.941588 C97.8306381,226.219409 97.951572,226.419875 98.1928949,226.542988 C98.4347626,226.666101 98.8640233,226.805012 99.480677,226.959175 C100.05593,227.103533 100.547292,227.246802 100.953128,227.39116 C101.35951,227.535518 101.69344,227.699486 101.955463,227.884156 C102.217486,228.06937 102.407603,228.282911 102.525813,228.524233 C102.644023,228.766101 102.703401,229.056451 102.703401,229.395829 C102.703401,229.786412 102.623323,230.141043 102.464257,230.459175 C102.304646,230.778397 102.0813,231.048047 101.793673,231.268669 C101.505502,231.489837 101.153595,231.659798 100.737409,231.778008 C100.321222,231.895673 99.8609105,231.955051 99.3575642,231.955051" id="Fill-75" fill="#626366"></path>
            <path d="M109.348661,231.38421 C109.07084,231.507868 108.729284,231.630981 108.322903,231.754638 C107.917066,231.877751 107.493253,231.939852 107.050918,231.939852 C106.763292,231.939852 106.493642,231.903354 106.241969,231.831447 C105.989751,231.759541 105.769128,231.644599 105.578467,231.484988 C105.38835,231.325377 105.236911,231.120008 105.123603,230.86779 C105.010296,230.616117 104.954732,230.310514 104.954732,229.950436 L104.954732,225.309735 L103.906093,225.309735 L103.906093,223.721798 L104.954732,223.721798 L104.954732,221.09993 L107.020412,221.09993 L107.020412,223.721798 L108.732008,223.721798 L108.732008,225.309735 L107.020412,225.309735 L107.020412,229.256973 C107.020412,229.544599 107.097222,229.74779 107.251385,229.866 C107.406093,229.98421 107.590763,230.043043 107.806482,230.043043 C108.022202,230.043043 108.233019,230.007089 108.438934,229.935183 C108.644304,229.863276 108.808817,229.80172 108.93193,229.749969 L109.348661,231.38421 Z" id="Fill-77" fill="#626366"></path>
            <path d="M112.432529,227.77635 C112.432529,228.136428 112.487004,228.462732 112.594864,228.755805 C112.702179,229.048335 112.85144,229.303276 113.041556,229.518451 C113.231673,229.734716 113.455564,229.901409 113.712685,230.019619 C113.969261,230.138374 114.246537,230.197206 114.545058,230.197206 C114.843035,230.197206 115.120856,230.138374 115.377432,230.019619 C115.634553,229.901409 115.857899,229.734716 116.04856,229.518451 C116.238132,229.303276 116.387938,229.046156 116.495253,228.747634 C116.603113,228.449658 116.657588,228.121175 116.657588,227.761097 C116.657588,227.411914 116.603113,227.08779 116.495253,226.789268 C116.387938,226.491837 116.238132,226.234716 116.04856,226.018451 C115.857899,225.802732 115.634553,225.636039 115.377432,225.517829 C115.120856,225.399619 114.843035,225.340241 114.545058,225.340241 C114.246537,225.340241 113.969261,225.402342 113.712685,225.525455 C113.455564,225.649113 113.231673,225.817984 113.041556,226.034249 C112.85144,226.249969 112.702179,226.507089 112.594864,226.805066 C112.487004,227.103588 112.432529,227.427167 112.432529,227.77635 M114.545058,231.955105 C113.887004,231.955105 113.295953,231.841798 112.771907,231.615728 C112.247315,231.389658 111.802802,231.08351 111.438366,230.698374 C111.073385,230.312693 110.79284,229.868724 110.597821,229.364833 C110.402257,228.860942 110.305292,228.331992 110.305292,227.77635 C110.305292,227.211447 110.402257,226.676506 110.597821,226.17316 C110.79284,225.669268 111.073385,225.22421 111.438366,224.839074 C111.802802,224.453393 112.247315,224.148335 112.771907,223.92172 C113.295953,223.696195 113.887004,223.582887 114.545058,223.582887 C115.202568,223.582887 115.79144,223.696195 116.310584,223.92172 C116.829183,224.148335 117.271518,224.453393 117.636498,224.839074 C118.001479,225.22421 118.281479,225.669268 118.477043,226.17316 C118.672062,226.676506 118.770117,227.211447 118.770117,227.77635 C118.770117,228.331992 118.672062,228.860942 118.477043,229.364833 C118.281479,229.868724 118.004202,230.312693 117.644125,230.698374 C117.284047,231.08351 116.842802,231.389658 116.31821,231.615728 C115.794163,231.841798 115.202568,231.955105 114.545058,231.955105" id="Fill-79" fill="#626366"></path>
            <path d="M128.174903,231.800778 L126.108677,231.800778 L126.108677,227.267938 C126.108677,226.620233 125.99537,226.147393 125.769844,225.848872 C125.54323,225.550895 125.23,225.402179 124.829066,225.402179 C124.623152,225.402179 124.412879,225.443035 124.196615,225.525292 C123.980895,225.608093 123.778249,225.72358 123.587588,225.872296 C123.397471,226.021556 123.225331,226.198599 123.071167,226.404514 C122.917549,226.609883 122.804241,226.835953 122.732335,227.082724 L122.732335,231.800778 L120.666109,231.800778 L120.666109,223.721634 L122.531868,223.721634 L122.531868,225.216965 C122.8293,224.703268 123.261284,224.30179 123.827276,224.014163 C124.392179,223.727082 125.029533,223.582724 125.738794,223.582724 C126.24214,223.582724 126.653424,223.675331 126.972101,223.86 C127.290778,224.045214 127.537549,224.286537 127.712412,224.585058 C127.887276,224.883035 128.007665,225.222412 128.074669,225.602646 C128.141128,225.982879 128.174903,226.368016 128.174903,226.758599 L128.174903,231.800778 Z" id="Fill-81" fill="#626366"></path>
            <polygon id="Fill-83" fill="#626366" points="139.923681 220.85365 132.275977 231.800887 129.994031 231.800887 137.625938 220.85365"></polygon>
            <path d="M39.163284,249.069315 C38.3205603,249.943089 37.3487315,250.379977 36.2488872,250.379977 C35.5499767,250.379977 34.8924669,250.225813 34.2752685,249.917486 C33.6591595,249.60916 33.1214942,249.195152 32.6644514,248.676008 C32.2068638,248.157409 31.8473307,247.558732 31.5847626,246.879977 C31.3227393,246.201222 31.192,245.497409 31.192,244.767992 C31.192,244.017875 31.3227393,243.310794 31.5847626,242.647837 C31.8473307,241.984335 32.2117665,241.404179 32.6797043,240.905191 C33.147642,240.407292 33.6972918,240.010716 34.3291984,239.718187 C34.9616498,239.425113 35.6474864,239.278576 36.3877977,239.278576 C37.3846848,239.278576 38.2383035,239.494296 38.9475642,239.92628 C39.6568249,240.358265 40.1912218,240.93842 40.5507549,241.668381 L38.9628171,242.840132 C38.6953463,242.295385 38.3281868,241.879198 37.860249,241.591027 C37.392856,241.303946 36.8758911,241.159588 36.3109883,241.159588 C35.8583035,241.159588 35.4497432,241.257642 35.0853074,241.452661 C34.7197821,241.648226 34.4087315,241.915152 34.1521556,242.254529 C33.895035,242.593362 33.6945681,242.98449 33.5507549,243.42628 C33.4069416,243.86807 33.335035,244.336008 33.335035,244.829549 C33.335035,245.343245 33.4118444,245.823712 33.5665525,246.270949 C33.720716,246.718187 33.9364358,247.106047 34.2137121,247.435074 C34.4915331,247.764101 34.8172918,248.023401 35.1926226,248.214062 C35.5679533,248.403634 35.9819611,248.498965 36.4341012,248.498965 C37.4413385,248.498965 38.3510661,248.000521 39.163284,247.003634 L39.163284,246.232272 L36.9586926,246.232272 L36.9586926,244.675385 L40.9211829,244.675385 L40.9211829,250.303167 L39.163284,250.303167 L39.163284,249.069315 Z" id="Fill-85" fill="#626366"></path>
            <path d="M45.8858988,248.94593 C46.2350817,248.94593 46.5668327,248.884918 46.880607,248.761261 C47.1938366,248.638148 47.4378833,248.473634 47.6127471,248.26772 C47.8388171,248.093401 47.9521245,247.897837 47.9521245,247.682117 L47.9521245,246.756591 C47.7053541,246.664529 47.4378833,246.589899 47.1502568,246.533245 C46.8620856,246.477136 46.5848093,246.448265 46.3173385,246.448265 C45.7829416,246.448265 45.3460545,246.569198 45.0072218,246.810521 C44.6678444,247.051844 44.498428,247.357992 44.498428,247.72842 C44.498428,248.077603 44.6318911,248.367953 44.8988171,248.598926 C45.1662879,248.830444 45.4953152,248.94593 45.8858988,248.94593 M45.299751,250.457058 C44.9091673,250.457058 44.5447315,250.392778 44.2053541,250.264763 C43.8659767,250.136202 43.5729027,249.955891 43.326677,249.724918 C43.0799066,249.493401 42.8870661,249.223751 42.7481556,248.914879 C42.6092451,248.607097 42.5400623,248.26772 42.5400623,247.897837 C42.5400623,247.517603 42.6250428,247.165152 42.7944591,246.841572 C42.9638755,246.517992 43.2002957,246.242895 43.5037198,246.016825 C43.807144,245.790755 44.1694008,245.613167 44.591035,245.484607 C45.0121245,245.356047 45.4746148,245.291767 45.9785058,245.291767 C46.3380389,245.291767 46.6899455,245.322817 47.0347704,245.384374 C47.3790506,245.44593 47.6846537,245.533634 47.9521245,245.646397 L47.9521245,245.183907 C47.9521245,244.64951 47.8001401,244.238226 47.4972607,243.950599 C47.1938366,243.662973 46.7438755,243.518615 46.1479222,243.518615 C45.7159377,243.518615 45.2948482,243.595969 44.8835642,243.750132 C44.4722802,243.904296 44.0511907,244.130366 43.6192062,244.428342 L42.9872996,243.118226 C44.0250428,242.429121 45.1461323,242.08484 46.3483891,242.08484 C47.5097899,242.08484 48.4118911,242.370288 49.0541479,242.940638 C49.6969494,243.510988 50.0178054,244.335735 50.0178054,245.415424 L50.0178054,247.928887 C50.0178054,248.144062 50.0592062,248.29877 50.141463,248.390833 C50.2237198,248.48344 50.3675331,248.535191 50.5729027,248.545541 L50.5729027,250.302895 C50.3778833,250.343751 50.195393,250.372078 50.0259767,250.387331 C49.8565603,250.403128 49.7100233,250.410755 49.5863658,250.410755 C49.1957821,250.400405 48.8978054,250.310521 48.6918911,250.141105 C48.4865214,249.971689 48.3579611,249.742895 48.3067549,249.455268 L48.2604514,249.007486 C47.9003735,249.480327 47.4634864,249.840405 46.9497899,250.087175 C46.4355486,250.333946 45.8858988,250.457058 45.299751,250.457058" id="Fill-87" fill="#626366"></path>
            <path d="M52.5156887,239.047385 L54.5819144,239.047385 L54.5819144,247.62007 C54.5819144,248.247619 54.8646381,248.560848 55.4300856,248.560848 C55.5428482,248.560848 55.6735875,248.540148 55.8228482,248.499292 C55.9721089,248.457891 56.1131984,248.411588 56.2472062,248.360381 L56.5244825,250.009875 C56.2472062,250.143883 55.9230817,250.24684 55.5531984,250.318202 C55.1827704,250.390109 54.8488405,250.426607 54.5508638,250.426607 C53.9031595,250.426607 53.4019922,250.254467 53.0479066,249.909642 C52.6932763,249.565907 52.5156887,249.074545 52.5156887,248.437191 L52.5156887,239.047385 Z" id="Fill-89" fill="#626366"></path>
            <polygon id="Fill-91" fill="#626366" points="59.7160467 250.303004 56.7406381 242.22386 58.8678755 242.22386 60.9188482 248.622459 62.9850739 242.22386 64.927642 242.22386 61.9516887 250.303004"></polygon>
            <path d="M72.3441556,245.584895 C72.2918599,244.978591 72.0685136,244.492677 71.6730272,244.127696 C71.2775409,243.762716 70.7965292,243.580226 70.2316265,243.580226 C69.9538054,243.580226 69.6939611,243.629253 69.4526381,243.726763 C69.2113152,243.824817 68.9977743,243.961004 68.8131051,244.135868 C68.6278911,244.310187 68.4759066,244.521004 68.3582412,244.767774 C68.2394864,245.014545 68.1703035,245.286918 68.1496031,245.584895 L72.3441556,245.584895 Z M70.2468794,250.457113 C69.5991751,250.457113 69.013572,250.346529 68.4889805,250.125907 C67.9649339,249.904739 67.5176965,249.604039 67.1478132,249.223805 C66.7773852,248.843572 66.4924825,248.401782 66.2920156,247.897891 C66.0915486,247.394 65.9913152,246.865051 65.9913152,246.309409 C65.9913152,245.733611 66.0888249,245.191588 66.2838444,244.682794 C66.4794086,244.174 66.7621323,243.726763 67.1325603,243.341626 C67.5024436,242.955946 67.9518599,242.650342 68.4813541,242.423728 C69.0108482,242.198202 69.6040778,242.084895 70.2621323,242.084895 C70.9201868,242.084895 71.5085136,242.198202 72.0282023,242.423728 C72.5462568,242.650342 72.9891362,242.953767 73.3541167,243.333455 C73.7185525,243.713689 73.9963735,244.156568 74.1859455,244.659914 C74.3760623,245.163805 74.4719377,245.687307 74.4719377,246.232054 C74.4719377,246.366607 74.4686693,246.494623 74.4637665,246.617735 C74.4583191,246.741393 74.4452451,246.84435 74.4250895,246.926607 L68.1806537,246.926607 C68.2117043,247.245284 68.2885136,247.527463 68.4121712,247.774778 C68.535284,248.021004 68.6943502,248.231821 68.8899144,248.406685 C69.0854786,248.581549 69.3061012,248.715012 69.5528716,248.807619 C69.799642,248.899681 70.0567626,248.945984 70.3242335,248.945984 C70.7349728,248.945984 71.1228327,248.845751 71.4878132,248.645284 C71.8527938,248.444817 72.1028327,248.180615 72.235751,247.851588 L74.0094475,248.344584 C73.7103813,248.961237 73.2359066,249.467852 72.5822101,249.863339 C71.9301479,250.25937 71.1511595,250.457113 70.2468794,250.457113 L70.2468794,250.457113 Z" id="Fill-93" fill="#626366"></path>
            <path d="M79.4673774,250.457276 C79.1383502,250.457276 78.7967938,250.431128 78.4416187,250.379922 C78.0875331,250.328716 77.7399844,250.256809 77.4011518,250.164202 C77.0617743,250.071595 76.7381946,249.958833 76.4298677,249.82537 C76.1209961,249.691907 75.8486226,249.542101 75.6127471,249.378132 L76.4451206,247.974319 C77.4730584,248.643268 78.4650428,248.976654 79.4210739,248.976654 C79.8525136,248.976654 80.1918911,248.899844 80.4386615,248.745681 C80.6848872,248.591518 80.8085447,248.370895 80.8085447,248.082724 C80.8085447,247.795097 80.6620078,247.581556 80.3689339,247.443191 C80.0758599,247.30428 79.5855875,247.15284 78.8964825,246.988327 C78.3724358,246.864669 77.9251984,246.736109 77.5553152,246.602646 C77.1854319,246.469183 76.8869105,246.315019 76.6613852,246.139611 C76.4347704,245.965292 76.2702568,245.764825 76.1672996,245.538755 C76.0648872,245.312685 76.0131362,245.045214 76.0131362,244.736887 C76.0131362,244.325603 76.0959377,243.95572 76.2599066,243.626693 C76.4244202,243.297665 76.653214,243.017665 76.9462879,242.786148 C77.2388171,242.555175 77.583642,242.377588 77.9796732,242.254475 C78.3746148,242.131362 78.8038755,242.069805 79.2669105,242.069805 C79.8421634,242.069805 80.4152374,242.159689 80.9861323,242.339455 C81.5564825,242.519222 82.0887004,242.763268 82.5816965,243.071595 L81.7335253,244.351206 C81.2813852,244.064125 80.8548482,243.855486 80.4544591,243.726926 C80.0529805,243.598366 79.6520467,243.534086 79.2516576,243.534086 C78.8812296,243.534086 78.5707237,243.606537 78.3185058,243.749805 C78.0668327,243.894163 77.9404514,244.125681 77.9404514,244.443813 C77.9404514,244.721634 78.0613852,244.922101 78.3027082,245.045214 C78.5445759,245.168327 78.9738366,245.307237 79.5904903,245.461401 C80.1657432,245.605759 80.6571051,245.749027 81.0629416,245.893385 C81.469323,246.037743 81.8032529,246.201712 82.0652763,246.386381 C82.3272996,246.571595 82.5174163,246.785136 82.6356265,247.026459 C82.7538366,247.268327 82.813214,247.558677 82.813214,247.898054 C82.813214,248.288638 82.7331362,248.643268 82.57407,248.961401 C82.4144591,249.280623 82.1911128,249.550272 81.9034864,249.770895 C81.6153152,249.992062 81.2634086,250.162023 80.8472218,250.280233 C80.431035,250.397899 79.9707237,250.457276 79.4673774,250.457276" id="Fill-95" fill="#626366"></path>
            <path d="M89.4590195,249.886436 C89.1811984,250.010093 88.839642,250.133206 88.4332607,250.256864 C88.0274241,250.379977 87.6036109,250.442078 87.1612763,250.442078 C86.8736498,250.442078 86.604,250.40558 86.3523268,250.333673 C86.1001089,250.261767 85.8794864,250.146825 85.6888249,249.987214 C85.4987082,249.827603 85.3472685,249.622233 85.2339611,249.370016 C85.1206537,249.118342 85.0650895,248.812739 85.0650895,248.452661 L85.0650895,243.811961 L84.0164514,243.811961 L84.0164514,242.224023 L85.0650895,242.224023 L85.0650895,239.602156 L87.1307704,239.602156 L87.1307704,242.224023 L88.8423658,242.224023 L88.8423658,243.811961 L87.1307704,243.811961 L87.1307704,247.759198 C87.1307704,248.046825 87.2075798,248.250016 87.3617432,248.368226 C87.5164514,248.486436 87.7011206,248.545268 87.9168405,248.545268 C88.1325603,248.545268 88.3433774,248.509315 88.5492918,248.437409 C88.7546615,248.365502 88.9191751,248.303946 89.0422879,248.252195 L89.4590195,249.886436 Z" id="Fill-97" fill="#626366"></path>
            <g id="Group-101" transform="translate(89.883268, 241.741323)" fill="#626366">
                <path d="M2.65858366,4.53725292 C2.65858366,4.89733074 2.71305837,5.22363424 2.82091829,5.51670817 C2.92823346,5.80923735 3.07749416,6.06417899 3.26761089,6.27935409 C3.45772763,6.49561868 3.68161868,6.66231128 3.9387393,6.7805214 C4.19531518,6.89927626 4.47259144,6.95810895 4.77111284,6.95810895 C5.06908949,6.95810895 5.34691051,6.89927626 5.60348638,6.7805214 C5.860607,6.66231128 6.08395331,6.49561868 6.27461479,6.27935409 C6.46418677,6.06417899 6.61399222,5.80705837 6.72130739,5.50853696 C6.82916732,5.21056031 6.88364202,4.88207782 6.88364202,4.522 C6.88364202,4.17281712 6.82916732,3.84869261 6.72130739,3.55017121 C6.61399222,3.2527393 6.46418677,2.99561868 6.27461479,2.77935409 C6.08395331,2.56363424 5.860607,2.39694163 5.60348638,2.27873152 C5.34691051,2.1605214 5.06908949,2.10114397 4.77111284,2.10114397 C4.47259144,2.10114397 4.19531518,2.16324514 3.9387393,2.28635798 C3.68161868,2.41001556 3.45772763,2.57888716 3.26761089,2.79515175 C3.07749416,3.0108716 2.92823346,3.26799222 2.82091829,3.56596887 C2.71305837,3.86449027 2.65858366,4.18807004 2.65858366,4.53725292 M4.77111284,8.71600778 C4.11305837,8.71600778 3.52200778,8.60270039 2.99796109,8.37663035 C2.47336965,8.15056031 2.02885603,7.84441245 1.66442023,7.45927626 C1.29943969,7.07359533 1.01889494,6.62962646 0.823875486,6.12573541 C0.628311284,5.62184436 0.531346304,5.09289494 0.531346304,4.53725292 C0.531346304,3.97235019 0.628311284,3.43740856 0.823875486,2.93406226 C1.01889494,2.43017121 1.29943969,1.98511284 1.66442023,1.59997665 C2.02885603,1.21429572 2.47336965,0.909237354 2.99796109,0.682622568 C3.52200778,0.457097276 4.11305837,0.343789883 4.77111284,0.343789883 C5.42862257,0.343789883 6.01749416,0.457097276 6.53663813,0.682622568 C7.05523735,0.909237354 7.49757198,1.21429572 7.86255253,1.59997665 C8.22753307,1.98511284 8.50753307,2.43017121 8.70309728,2.93406226 C8.89811673,3.43740856 8.99617121,3.97235019 8.99617121,4.53725292 C8.99617121,5.09289494 8.89811673,5.62184436 8.70309728,6.12573541 C8.50753307,6.62962646 8.23025681,7.07359533 7.87017899,7.45927626 C7.51010117,7.84441245 7.06885603,8.15056031 6.54426459,8.37663035 C6.0202179,8.60270039 5.42862257,8.71600778 4.77111284,8.71600778" id="Fill-99"></path>
            </g>
            <path d="M108.284171,250.303004 L106.217946,250.303004 L106.217946,245.770163 C106.217946,245.122459 106.104638,244.649619 105.879113,244.351097 C105.652498,244.053121 105.339268,243.904405 104.938335,243.904405 C104.73242,243.904405 104.522148,243.945261 104.305883,244.027518 C104.090163,244.110319 103.887518,244.225805 103.696856,244.374521 C103.506739,244.523782 103.334599,244.700825 103.180436,244.906739 C103.026817,245.112109 102.91351,245.338179 102.841603,245.584949 L102.841603,250.303004 L100.775377,250.303004 L100.775377,242.22386 L102.641136,242.22386 L102.641136,243.719191 C102.938568,243.205494 103.370553,242.804016 103.936545,242.516389 C104.501447,242.229307 105.138802,242.084949 105.848062,242.084949 C106.351409,242.084949 106.762693,242.177556 107.08137,242.362226 C107.400047,242.54744 107.646817,242.788763 107.821681,243.087284 C107.996545,243.385261 108.116934,243.724638 108.183938,244.104872 C108.250397,244.485105 108.284171,244.870241 108.284171,245.260825 L108.284171,250.303004 Z" id="Fill-102" fill="#626366"></path>
        </g>
    </g>
</svg>