<?xml version="1.0" encoding="UTF-8" standalone="no"?>
<svg width="79px" height="146px" viewBox="0 0 79 146" version="1.1" xmlns="http://www.w3.org/2000/svg" xmlns:xlink="http://www.w3.org/1999/xlink">
    <!-- Generator: Sketch 39.1 (31720) - http://www.bohemiancoding.com/sketch -->
    <title>Page 1</title>
    <desc>Created with Sketch.</desc>
    <defs>
        <polygon id="path-1" points="20.0399577 0.0128268734 0.106014844 0.0128268734 0.106014844 27.6376868 20.0399577 27.6376868 20.0399577 0.0128268734"></polygon>
        <polygon id="path-3" points="0 145.649185 94.8249808 145.649185 94.8249808 0.377260982 0 0.377260982"></polygon>
    </defs>
    <g id="Page-1" stroke="none" stroke-width="1" fill="none" fill-rule="evenodd">
        <g transform="translate(-11.000000, 0.000000)">
            <path d="M87.4884231,130.777331 C88.2827692,130.777331 88.9167115,131.444705 88.9167115,132.280716 C88.9167115,133.126912 88.2827692,133.787496 87.48075,133.787496 C86.6871346,133.787496 86.0374808,133.126912 86.0374808,132.280716 C86.0374808,131.444705 86.6871346,130.777331 87.48075,130.777331 L87.4884231,130.777331 L87.4884231,130.777331 Z M87.48075,131.010101 C86.8413269,131.010101 86.317,131.576747 86.317,132.280716 C86.317,132.993362 86.8413269,133.556235 87.4884231,133.556235 C88.1355192,133.563403 88.654,132.993362 88.654,132.285997 C88.654,131.576747 88.1355192,131.010101 87.4884231,131.010101 L87.48075,131.010101 L87.48075,131.010101 Z M87.2096346,133.152943 L86.9498462,133.152943 L86.9498462,131.476018 C87.0875962,131.456778 87.2165769,131.439424 87.4109615,131.439424 C87.6568654,131.439424 87.8190962,131.489977 87.9151923,131.564674 C88.0109231,131.637486 88.0657308,131.752173 88.0657308,131.912132 C88.0657308,132.132829 87.9210385,132.266757 87.7449231,132.320705 L87.7449231,132.332778 C87.8888846,132.358809 87.9849808,132.492736 88.0167692,132.737579 C88.0573269,133.000152 88.0967885,133.102767 88.1205385,133.152943 L87.85125,133.152943 C87.8106923,133.102767 87.7726923,132.946204 87.7390769,132.727393 C87.704,132.513486 87.5976731,132.431997 87.3908654,132.431997 L87.2096346,132.431997 L87.2096346,133.152943 L87.2096346,133.152943 Z M87.2096346,132.226767 L87.3956154,132.226767 C87.6111923,132.226767 87.7913269,132.143393 87.7913269,131.938163 C87.7913269,131.792163 87.6904808,131.644654 87.3956154,131.644654 C87.3141346,131.644654 87.2567692,131.651444 87.2096346,131.658612 L87.2096346,132.226767 L87.2096346,132.226767 Z" id="Fill-1" fill="#221F20"></path>
            <path d="M14.2345442,138.384421 L18.1521981,138.384421 C18.4730058,138.384421 18.7616596,138.313119 19.0225442,138.167119 C19.2808712,138.024514 19.5048519,137.823057 19.6908327,137.56916 C19.8775442,137.315641 20.0251596,137.023641 20.1311212,136.693537 C20.2370827,136.363057 20.2900635,136.010318 20.2900635,135.638339 C20.2900635,135.268245 20.2268519,134.917016 20.1007942,134.586912 C19.9751019,134.256809 19.807025,133.968204 19.6016788,133.721475 C19.3930442,133.47286 19.1548135,133.276685 18.8811404,133.132194 C18.6085635,132.986194 18.3257558,132.914891 18.0319865,132.914891 L14.2345442,132.914891 L14.2345442,138.384421 Z M11.9951019,145.525594 L11.9951019,130.871269 L18.1726596,130.871269 C18.8113519,130.871269 19.4014481,131.010101 19.9414865,131.284747 C20.4811596,131.559393 20.9433712,131.922695 21.3303135,132.367486 C21.7157942,132.816049 22.020525,133.325351 22.2393904,133.895393 C22.4589865,134.466943 22.5700635,135.047548 22.5700635,135.638339 C22.5700635,136.135568 22.5028327,136.610163 22.3705635,137.06363 C22.2361019,137.518984 22.0508519,137.937744 21.8100635,138.321796 C21.5711019,138.707734 21.2780635,139.043119 20.9313135,139.323047 C20.5845635,139.605992 20.2041981,139.814618 19.7920442,139.953827 L23.1298327,145.525594 L20.5896788,145.525594 L17.512775,140.428421 L14.2345442,140.428421 L14.2345442,145.525594 L11.9951019,145.525594 Z" id="Fill-3" fill="#221F20"></path>
            <polygon id="Fill-5" fill="#221F20" points="41.7390538 145.525745 41.7390538 134.979792 37.5217846 142.967539 36.2809385 142.967539 32.0450346 134.979792 32.0450346 145.525745 29.8048615 145.525745 29.8048615 130.871042 32.2043423 130.871042 36.9006308 139.828727 41.5983808 130.871042 43.9971308 130.871042 43.9971308 145.525745"></polygon>
            <polygon id="Fill-7" fill="#221F20" points="63.4472481 130.871118 63.4472481 145.525821 61.1873442 145.525821 61.1873442 139.065604 54.0320173 139.065604 54.0320173 145.525821 51.7922096 145.525821 51.7922096 130.871118 54.0320173 130.871118 54.0320173 137.002741 61.1873442 137.002741 61.1873442 130.871118"></polygon>
            <path d="M70.3410327,138.094157 C70.3410327,137.214761 70.4941288,136.338761 70.8021481,135.464648 C71.1076096,134.590534 71.5563019,133.806586 72.1496865,133.111294 C72.7423404,132.416379 73.4650712,131.855014 74.3204365,131.430596 C75.1717827,131.00165 76.138225,130.791139 77.2186673,130.791139 C78.5092058,130.791139 79.6174173,131.086534 80.5356288,131.677702 C81.4538404,132.268493 82.1473404,133.039991 82.6153981,133.98918 L80.8557058,135.205469 C80.6551096,134.76596 80.4161481,134.395867 80.1344365,134.093304 C79.8563788,133.787345 79.5490904,133.549294 79.2158596,133.370472 C78.8826288,133.191273 78.5366096,133.064513 78.1756096,132.98642 C77.8182635,132.911722 77.4711481,132.875128 77.1364558,132.875128 C76.3888788,132.875128 75.7373981,133.029805 75.178725,133.339159 C74.6196865,133.648513 74.1501673,134.058596 73.7698019,134.566012 C73.3901673,135.075314 73.1033404,135.647242 72.9096865,136.279909 C72.7160327,136.910689 72.6217635,137.544865 72.6217635,138.177531 C72.6217635,138.893573 72.7335712,139.574906 72.9601096,140.221531 C73.1848212,140.868157 73.5030712,141.439707 73.9086481,141.935051 C74.314225,142.430394 74.7983596,142.825009 75.3588596,143.122291 C75.9186288,143.417686 76.5313788,143.563686 77.1985712,143.563686 C77.5445904,143.563686 77.900475,143.520301 78.2665904,143.429759 C78.6327058,143.342989 78.9863981,143.196989 79.3262058,142.99704 C79.6671096,142.797092 79.9784173,142.546968 80.2663404,142.242518 C80.5524365,141.940332 80.7873788,141.57703 80.9748212,141.149593 L82.8324365,142.242518 C82.6088212,142.793697 82.2872827,143.276968 81.876225,143.697237 C81.4596865,144.117883 80.9960135,144.472508 80.4742442,144.762999 C79.9564942,145.051226 79.406225,145.270415 78.8278212,145.421319 C78.247225,145.572601 77.6775904,145.649185 77.1185519,145.649185 C76.1188596,145.649185 75.2057635,145.428487 74.3792635,144.988601 C73.5520327,144.549092 72.8380712,143.975655 72.2388404,143.266405 C71.6403404,142.557154 71.1741096,141.750947 70.8408788,140.850803 C70.5076481,139.950281 70.3410327,139.030896 70.3410327,138.094157" id="Fill-9" fill="#221F20"></path>
            <g id="Group-13" transform="translate(63.942308, 0.364434)">
                <mask id="mask-2" fill="white">
                    <use xlink:href="#path-1"></use>
                </mask>
                <g id="Clip-12"></g>
                <path d="M19.8302269,5.44040517 L20.0399577,9.31072558 C18.9456308,9.31072558 19.7257269,10.8159969 18.7899769,10.8699452 C17.1227269,16.1915886 11.8652077,15.4370667 9.83841923,20.3818264 C8.74518846,21.9406687 7.75463077,23.4995111 7.80505385,25.5420021 L6.81705385,26.3500951 C6.92118846,26.6696351 7.33809231,26.6175731 7.54563077,26.6175731 L7.54563077,27.6376868 L5.82649615,27.6376868 C4.57724615,23.7153044 8.16934231,19.9004413 6.55616923,15.7603793 C3.90055385,12.2133716 -1.92842692,9.31072558 0.829496154,4.14904083 C1.45649615,4.36634315 1.92382308,3.55975917 2.07947692,3.12892713 C2.13172692,2.8614491 1.92382308,2.75166615 1.81932308,2.59170749 C3.17270769,0.548084755 5.93172692,1.19433282 7.80505385,1.03286512 C8.48247692,1.14076176 9.00278462,1.8394491 9.57570769,2.32422946 C10.9813423,1.46407442 11.50165,-0.0430832041 13.5828808,0.548084755 L14.0531308,0.0127514212 C16.4467654,1.19433282 19.9347269,1.8394491 19.8302269,5.44040517" id="Fill-11" fill="#E32B26" mask="url(#mask-2)"></path>
            </g>
            <path d="M81.4824865,5.05227907 C81.6903904,6.55566408 81.7433712,8.70567442 81.0144288,10.2124548 C80.6508712,10.7492972 79.2445058,11.0171525 79.2445058,11.9867132 L78.7757173,11.9867132 L72.9978904,17.4143669 C72.631775,13.4919845 69.0937558,12.6299432 67.5306404,9.4058708 C66.1279288,9.13650646 66.4385058,7.41770543 66.7505442,6.55566408 C67.4279673,5.42765375 68.3125635,4.19212403 69.5102942,3.49343669 C71.0211596,2.90226873 72.4249673,4.19212403 72.7381019,5.80491473 C74.1941596,6.07427907 73.8824865,8.70567442 75.496025,7.84702842 C76.3301981,7.09627907 76.0693135,6.44965375 75.7569096,5.53555039 C75.3933519,5.05227907 74.7148327,4.56900775 75.2358712,3.76280103 C77.0043327,2.63290439 80.806525,2.25752972 81.4824865,5.05227907" id="Fill-14" fill="#FEFEFE"></path>
            <path d="M48.3870442,21.2692951 C49.4499481,24.3526491 52.639025,26.2348041 54.9654288,28.2716362 C58.1029865,30.4650315 60.7363135,32.9225096 63.720775,35.0653519 C65.8988327,32.6618222 64.3799288,28.2195742 66.3533712,25.5014088 C67.7706981,24.4047111 68.7824481,26.7037395 70.2509288,27.5397499 C71.6689865,27.2775535 73.6402365,28.1675121 74.4002365,26.7561788 C74.8562365,26.9663132 75.6651981,27.5397499 75.614775,28.0109488 C71.9189096,30.7796672 72.8809673,36.2661736 71.0094673,39.8188403 C71.3149288,41.0736103 70.4522558,41.8051194 70.7566212,43.0583804 C74.1484865,47.3961271 79.0066404,50.2708558 83.1548519,53.8770935 C83.8644288,53.5624579 84.4198135,54.3464062 84.5721788,54.8696672 C84.2177558,54.8176052 84.0672173,55.2865406 83.6108519,55.1303545 C82.041525,60.4086129 82.7518327,65.426184 81.4353519,70.1792951 C82.5479481,70.8587421 81.4353519,71.8513158 81.4353519,72.6873261 C82.3458904,78.2802202 79.5627558,83.9232899 81.9395827,89.4637447 C82.2443135,90.5068713 81.3849288,91.2904424 81.6871019,91.9717757 C81.1828712,94.8985664 82.6506212,99.4973778 81.6871019,102.526406 C81.9925635,103.258293 81.7879481,104.511176 81.4353519,105.557698 C81.6871019,110.260634 81.2318327,114.075497 81.1828712,118.307233 C81.3849288,119.039119 82.2954673,119.770628 82.9031019,119.089295 C83.0529096,119.71668 81.9395827,120.763202 82.1431019,121.600721 C78.7026404,121.705223 74.4002365,121.440763 70.7566212,120.815264 C60.785275,121.911962 49.7539481,123.270856 40.3898712,120.606639 C32.1394865,121.284577 24.6512942,121.546773 16.553275,120.345951 C16.0987365,121.284577 14.9346212,120.657192 14.1241981,120.815264 C13.3652942,119.560494 12.5033519,121.600721 11.6936596,120.083378 C13.3145058,116.896277 10.9851788,113.758975 12.4529288,110.312696 C12.7572942,102.841042 12.7572942,94.6344837 13.4157173,86.9542047 L13.6696596,86.9542047 C13.7690442,81.7804475 15.3387365,77.8109075 14.8827365,72.6873261 C15.4399481,68.2465871 14.9346212,63.9609023 14.3766788,59.3639773 C13.9206788,58.632091 12.5033519,59.1553519 12.7068712,57.9005819 C12.3012942,56.3851245 15.1359481,55.9139256 14.6291596,53.8770935 C15.0351019,53.4062718 15.7940058,53.6684682 16.3512173,53.6130109 C17.4649096,51.4215018 19.4383519,49.9060444 20.956525,48.0774605 C23.8419673,46.1953054 24.9023135,42.849755 27.9901788,41.3342977 C33.1015442,35.8493003 39.5801788,31.9299359 43.5274288,25.7620961 C44.8943327,24.6653984 45.5523904,23.4641995 45.9579673,21.7401168 C44.3893712,21.5820444 45.0459673,20.3291607 45.2494865,19.232463 L46.9185635,19.232463 C46.8670442,19.4931504 47.0698327,19.6478274 47.1732365,19.7538377 C48.4374673,19.8058997 48.5379481,17.8211297 50.107275,18.2383804 L48.3870442,21.2692951 Z" id="Fill-16" fill="#221F20"></path>
            <path d="M49.348225,26.0226703 C51.4236096,27.1733163 52.7905135,29.526293 55.2195904,30.3102413 C55.2195904,31.302815 56.4834558,31.8762517 56.8893981,32.2950114 C58.1543596,33.91497 60.0762827,35.0131767 61.0383404,36.3184997 C64.4309365,38.6699674 66.353225,41.4922568 68.072725,44.8378072 C72.6287058,47.9732233 75.767725,51.9427633 80.218475,54.869554 C79.8666096,57.7442827 79.8666096,60.5111147 80.218475,63.1266651 C79.6638212,63.5978641 80.2714558,65.1653835 79.7135135,65.8953835 C79.2085519,66.7313938 78.7024942,68.2468512 79.258975,69.3956109 L78.7514558,69.3956109 C78.954975,72.7411612 78.7514558,77.0792853 77.791225,79.9502413 C78.4492827,82.3556574 77.3845519,85.0719364 78.7514558,87.4773525 C78.9045519,97.5090992 78.6513404,107.752489 78.0437058,118.096986 C77.6885519,118.724371 76.5766865,117.836298 76.5766865,118.830381 L76.0698981,118.830381 C75.3603212,117.313037 74.0460327,118.61836 72.6805904,118.096986 C68.072725,118.462174 63.5178404,119.716944 58.3586096,119.560381 C53.7500135,119.716944 49.295975,119.456257 44.9961288,118.830381 L44.9961288,118.569694 C41.705475,117.575611 37.9610135,118.307497 34.5691481,118.569694 C30.5199558,119.770515 25.9153788,118.409735 21.4127442,118.830381 L21.4127442,118.569694 C20.4996481,118.201487 19.1842635,118.201487 18.2726288,118.569694 L18.2726288,118.830381 C18.0716673,118.096986 17.0076673,118.409735 16.3514365,118.307497 C16.5027058,118.830381 14.9845327,118.255058 14.3768981,118.096986 C14.5796865,102.52667 15.794225,84.655063 17.0591865,68.6637245 C16.0448788,64.7967995 15.946225,59.5204274 17.0591865,55.601063 C19.3863212,53.9795953 20.197475,51.106753 22.8790327,49.5931819 C29.5085712,40.0813008 40.0868212,35.4824894 45.7031481,25.0304739 C46.8672635,22.5243292 48.5378019,25.3447323 49.348225,26.0226703" id="Fill-18" fill="#FEFEFE"></path>
            <path d="M72.4274154,29.2640212 C71.9714154,30.8315406 72.2228,33.5497059 70.7568769,34.8029669 L69.5412423,40.3419127 C68.7333769,40.552047 68.9347038,40.0291633 68.57955,39.5579643 C67.5181077,37.8859437 65.6455115,37.8859437 64.9359346,36.057737 C65.6944731,33.4436956 65.9476846,30.6214062 66.86005,28.0107602 C69.03555,27.6440625 70.1481462,30.6753545 72.4274154,29.2640212" id="Fill-20" fill="#FEFEFE"></path>
            <path d="M57.7443615,49.9129106 C61.3667846,54.848616 66.0309192,58.2692413 71.98815,58.9260527 C72.8774962,58.9120941 73.7091115,58.8219287 74.5425538,58.696678 C74.8494769,58.6932827 75.0972077,58.9660424 75.1315538,59.3221767 L74.8867462,60.0763214 L65.97465,73.8814326 C65.5402077,74.8268486 64.3092269,74.1296703 64.1020538,75.1690243 L63.7081692,76.0484196 C64.2847462,77.167753 64.5094577,78.7111276 64.0625923,79.795753 C62.8034769,81.8186264 60.8779,83.3133344 60.2052269,85.6455618 C60.4467462,87.3681354 61.5038038,88.7862594 62.0299577,90.4303628 C62.4994769,91.5757271 62.6872846,92.7957891 62.6620731,94.0992258 C63.5558038,93.7340372 64.8214962,93.0179959 65.65165,93.9879339 C66.3871692,94.8778925 66.1884,96.1986832 65.7170538,97.1754119 C64.9965154,98.5829726 63.3084385,99.3963473 62.0040154,100.145588 C61.6916115,101.242285 61.6620154,102.582316 60.5739,103.21121 C59.8424,103.699763 59.0126115,103.789929 58.1448231,103.913293 C57.8729769,104.94397 57.1670538,105.85996 56.0895346,106.028595 C56.0460538,106.836688 56.1469,107.907355 55.3810538,108.394022 C54.8139769,108.934637 54.0817462,109.070073 53.3425731,108.924073 C53.1960538,110.074719 52.5800154,111.141613 51.5178423,111.489448 L50.4129192,111.586781 C49.4947077,112.584259 48.2246308,112.629531 46.9808615,112.392988 C46.2899192,112.108156 45.6300346,111.866332 45.1115538,111.211407 C44.0402462,111.312135 42.9627269,110.808115 42.4259769,109.9755 C42.06315,109.480156 41.8139577,108.889365 41.5958231,108.334792 C40.0692462,108.176719 38.9413038,106.751427 38.6014962,105.338585 L38.3464577,103.755221 C35.6440731,101.28567 36.1735154,96.9234016 37.2978038,93.8245798 L38.5835923,90.8144145 C37.6270154,88.7009984 36.3788615,86.7701767 35.3174192,84.6793964 C34.6769,84.5767814 33.8463808,84.6654377 33.4630923,84.0259804 L30.4603615,78.3425437 C29.8410346,78.0297943 29.0993038,77.9185023 28.7240538,77.2077426 L21.3597269,63.2604041 C21.1638808,62.8137271 21.3589962,62.2350088 21.5347462,61.8302078 L22.3780538,61.2462078 C25.1579,60.8289571 27.9962077,60.1355514 30.0865731,57.6693964 C31.0292654,56.7760424 32.0797462,55.1198667 33.5431115,55.9072103 L34.0104385,56.3818047 L41.7902077,70.9701096 C41.9005538,71.5835359 41.1825731,71.9328796 41.6093423,72.4716083 L44.0895731,77.571045 C44.4498423,78.422523 43.3810923,79.194399 44.2379192,79.8844093 L44.47615,79.5539287 C45.0406692,77.6370656 45.8116308,75.3482233 45.2602654,73.2763059 C45.4177462,70.9595463 47.8998038,70.0907142 49.6646115,69.5312362 L50.4626115,68.0244558 C50.0796885,67.3831121 49.8516885,66.5818098 50.1629962,65.8363421 C52.3596885,60.5180941 54.6170346,55.27643 56.8436885,49.9962853 C57.0786308,49.702399 57.4842077,49.7461612 57.7443615,49.9129106" id="Fill-22" fill="#221F20"></path>
            <path d="M72.6478885,60.584077 C72.5722538,60.9994413 72.2244077,61.3887747 71.9821577,61.786785 C65.9745038,62.680139 60.8306192,58.9279013 56.9513308,54.4958393 C57.0441385,53.9050486 57.2991769,53.4010279 57.5523885,52.8985163 C61.5065808,57.267953 66.3230808,61.1975034 72.6478885,60.584077" id="Fill-24" fill="#E32B26"></path>
            <path d="M70.6356058,63.6584899 C70.5259904,64.0723452 70.2179712,64.4284796 69.9775481,64.793291 C64.1357788,65.0313426 59.410625,61.8891359 55.5879712,57.6053375 C55.7662788,57.1635649 55.8499519,56.6787845 56.1587019,56.3226501 C60.023375,60.5389189 64.6918942,63.8897509 70.6356058,63.6584899" id="Fill-26" fill="#FEFEFE"></path>
            <path d="M68.8596904,66.4080057 C68.6207288,66.771308 68.4321904,67.6348584 67.7883827,67.5673287 C62.2495173,67.5220574 57.905825,64.701277 54.196075,60.9924243 C54.2844981,60.4363416 54.5040942,59.9304346 54.7934788,59.4301866 C58.6347673,63.1873287 63.0610365,66.581923 68.8596904,66.4080057" id="Fill-28" fill="#E32B26"></path>
            <path d="M39.6155846,70.8154703 C39.6787962,72.624814 37.7152192,73.443093 36.5185846,74.4862196 L33.9152192,75.9111344 C33.7478731,76.2136977 33.6097577,76.587186 33.8202192,76.8897494 C34.8352577,78.0577494 35.9814692,76.4796667 36.9712962,76.1597494 C38.1664692,75.469739 39.2461808,74.593739 40.2553731,73.7109483 L42.6537577,78.235062 C42.2028731,79.7052481 40.6675269,80.7132894 39.4632192,81.4708295 C38.0250654,82.2042248 36.5244308,83.1794444 34.8812962,82.8319871 C33.6433731,80.7947778 32.6199308,78.6726848 31.4148923,76.6392481 C30.8054308,76.577 30.1371423,76.3996873 29.8970846,75.7043953 L23.3029885,63.3577752 C23.2072577,62.9235478 23.7231808,62.9058165 23.9427769,62.7530258 C27.1577962,62.4142455 30.1488346,60.1842558 32.4642769,57.8448605 L32.8640077,57.9561525 L39.6155846,70.8154703 Z" id="Fill-30" fill="#E32B26"></path>
            <path d="M67.0998519,69.0149545 C66.9500442,69.4944532 66.6723519,69.8890682 66.3599481,70.2817969 C60.975275,70.3912026 56.6224481,67.6768098 52.933525,64.1120708 C52.9174481,63.5454248 53.2441019,63.0134868 53.4991404,62.5098434 C57.2914673,66.0866548 61.5620827,68.9677969 67.0998519,69.0149545" id="Fill-32" fill="#FEFEFE"></path>
            <path d="M65.26595,71.6861886 C65.2918923,72.1136253 64.8907,72.3535633 64.6532,72.6821576 C59.5867769,72.7187519 55.4433154,70.2748553 51.8461038,67.1779199 C51.6155462,66.7312429 51.9085846,66.1940233 52.1139308,65.8273256 C55.8101615,68.9680233 60.0040462,71.5975323 65.26595,71.6861886" id="Fill-34" fill="#E32B26"></path>
            <path d="M62.5356865,74.4043917 C62.2992827,75.4071514 61.6872635,76.4378284 60.6470135,76.9297767 C58.6187635,78.0592961 56.0870135,77.6925984 54.1000519,76.6705984 C52.5902827,75.6678388 51.0465327,74.6582884 50.9372827,72.6316424 C50.8758981,71.494955 51.3183788,70.480123 51.8459942,69.6180817 C55.0014558,71.9955804 58.525225,73.7751204 62.5356865,74.4043917" id="Fill-36" fill="#E32B26"></path>
            <path d="M49.0940635,72.2284636 C48.7513327,74.3471612 50.0586788,76.356076 51.6981596,77.4459829 C54.2127365,79.3681276 58.3697173,80.2614817 61.227025,78.6867943 L62.3176981,78.022815 C62.5683519,78.2608667 62.6224288,78.7633783 62.4817558,79.1368667 C61.360025,81.1736987 59.6255442,82.8302517 58.7274288,84.9991251 C58.3386596,88.2786548 61.2909673,90.6369132 60.894525,93.9877452 C60.709275,96.2298072 60.590525,98.5118589 60.1009096,100.724117 C59.840025,98.1172439 58.1464673,95.1489545 55.7035058,93.8696625 C55.0721212,93.6995178 54.5393904,93.8904119 54.0377173,94.1216729 C53.5908519,94.4989339 53.304025,94.9610786 53.1202365,95.4371819 C52.5052942,95.0916109 51.8578327,95.4130372 51.2958712,95.5658279 C50.3151788,96.1343602 49.8094865,97.1058072 49.8288519,98.3100243 C48.9442558,98.6073059 48.2423519,99.4904739 48.1159288,100.428722 C48.1901019,101.071952 48.0132558,101.831378 48.3347942,102.394629 C46.6481788,104.587647 47.2996596,107.730231 48.3114096,109.98927 L48.919775,110.759259 C48.5098135,111.105208 47.8696596,111.004479 47.409275,110.815094 C45.385775,109.824407 45.4968519,107.259032 45.6356981,105.152784 C45.5896596,103.875001 46.4716981,102.199962 45.5786981,101.188148 C45.1533904,100.969337 44.744525,101.313399 44.6089673,101.654066 C43.9896404,104.134179 43.4627558,107.081719 44.1478519,109.520334 C42.6680442,108.552283 42.5175058,106.595053 42.6472173,104.912846 C42.721025,102.764722 43.2924865,100.776557 43.7269288,98.7691509 C43.7605442,98.4213163 43.5815058,98.1557245 43.3312173,97.9157866 C42.9113904,97.6603809 42.4981404,98.0425463 42.3271404,98.3779313 C41.462275,100.938024 41.1473135,103.800681 41.2229481,106.529032 C40.4209288,106.339647 40.1483519,105.286334 39.9101212,104.556712 C39.5703135,102.083389 40.3968135,99.5878072 40.8999481,97.2378486 C40.8696212,96.8470062 40.8897173,96.2818693 40.3865827,96.1950992 C39.1106596,96.2750786 39.1921404,97.9086186 38.7872942,98.8891199 L38.4423712,101.363952 C37.3601019,99.8379313 37.8968519,97.4898589 38.2816019,95.6597659 C39.9656596,91.0281328 42.6227365,86.9593731 44.8285635,82.5971044 C45.8235058,80.118877 47.2930827,77.6927116 47.1027173,74.7398899 C46.8955442,74.0498796 47.0234288,73.1078589 47.3939288,72.4751922 C47.879525,72.0304016 48.4528135,71.7731096 49.0451019,71.6565359 L49.0940635,72.2284636 Z" id="Fill-38" fill="#FFC628"></path>
            <path d="M43.36085,81.87763 C42.2617731,84.342276 40.9741577,86.6812941 39.6500038,89.0172941 L39.5484269,89.0067307 L37.1529654,84.4464 C39.0913308,83.518338 41.1020423,82.5608496 42.8321385,80.9740899 C43.0882731,81.1442346 43.1832731,81.576953 43.36085,81.87763" id="Fill-40" fill="#FEFEFE"></path>
            <path d="M47.8677596,86.5163178 C47.8198942,87.3591189 47.5042019,88.1396718 47.4998173,88.8817442 C48.300375,87.6929948 49.1403942,86.1183075 50.4977981,85.5203488 C50.9052019,85.5603385 51.1441635,85.9028915 51.250125,86.2329948 C51.6224519,89.4170775 50.7217788,92.6792532 49.7268365,95.5102196 C49.3954327,95.4027003 49.0450288,95.117491 48.7311635,94.8394496 C49.3194327,92.6739716 50.2749135,90.5831912 50.5770865,88.2124832 C50.5971827,87.6496098 50.9859519,86.8415168 50.5105865,86.4382248 C49.5309904,87.0082661 49.1177404,88.0962868 48.4812404,88.9843592 C47.8114904,90.2564832 47.1994712,91.6067003 46.6280096,92.8893876 C46.2940481,92.4653463 44.8825673,92.2118269 45.5457404,91.3633669 C46.3905096,89.3665245 47.2129904,87.2602765 47.3752212,84.9103178 C47.2524519,84.7575271 47.0419904,84.8061938 46.9320096,84.9001318 C45.2559904,86.6328915 44.1653173,88.6765142 43.1404135,90.7586176 L42.2163558,90.0618165 C43.564625,87.8337132 44.7090096,85.2336305 47.165125,83.9007674 C47.4377019,83.9283075 47.5721635,83.9422661 47.7592404,84.1369328 C48.1713942,84.8167571 47.8721442,85.7742455 47.8677596,86.5163178" id="Fill-42" fill="#221F20"></path>
            <path d="M64.7803173,95.5589618 C64.8610673,96.8382537 63.5650481,97.4811065 62.6972596,97.9538145 C62.5912981,97.9783364 62.3439327,98.0598248 62.3987404,97.8549721 L62.5737596,96.0716594 C63.2234135,95.7136388 63.8182596,95.2443261 64.5428173,95.1801917 L64.7803173,95.5589618 Z" id="Fill-44" fill="#FEFEFE"></path>
            <path d="M58.02125,98.8803297 C58.3409615,99.7978284 59.1448077,101.047694 58.2357308,101.942557 C58.0658269,101.925203 57.9766731,102.128547 57.8151731,102.041777 C57.0577308,99.982309 56.0240577,97.9662264 54.3695962,96.3115597 C54.4737308,95.9674977 54.4503462,95.5049757 54.8811346,95.3035183 C56.6408269,95.4861127 57.2258077,97.5629344 58.02125,98.8803297" id="Fill-46" fill="#FEFEFE"></path>
            <path d="M55.0628404,99.7405979 C55.4921673,101.302836 57.6347827,103.186877 55.7815519,104.620846 C54.8004942,102.432732 53.3685519,100.642629 51.4086288,98.6159829 C51.2376288,98.2458899 51.3234942,97.7245152 51.4944942,97.3872439 C51.6939942,97.0918486 51.9789942,96.9790475 52.2585135,96.9005773 C53.6378404,97.1525876 54.3474173,98.6405049 55.0628404,99.7405979" id="Fill-48" fill="#FEFEFE"></path>
            <path d="M53.1346692,102.649959 C53.8712846,103.854176 54.4661308,105.118001 54.6765923,106.482176 C54.6656308,106.942812 54.3239962,107.295551 53.9637269,107.469468 L53.1584192,107.314791 C52.5168038,105.482812 52.1660346,102.757856 49.8937077,102.203282 C49.5714385,101.641918 49.3759577,100.842502 49.6847077,100.133251 C49.9927269,99.7752305 50.5364192,99.8344605 50.8539385,100.077794 C51.80065,100.529752 52.6103423,101.709825 53.1346692,102.649959" id="Fill-50" fill="#FEFEFE"></path>
            <path d="M50.7705942,104.805063 C51.3252481,106.099822 51.607325,107.436458 51.6332673,108.887404 C51.531325,109.264665 51.274825,109.768685 50.7925173,109.787926 C49.4442481,109.612122 49.4004019,107.947269 48.9491519,106.946019 C48.7313827,106.040592 48.7777865,104.877874 49.2337865,104.04375 C49.835575,103.505021 50.5535558,104.215781 50.7705942,104.805063" id="Fill-52" fill="#FEFEFE"></path>
            <path d="M87.0170769,118.985133 L87.3386154,118.985133 C87.704,118.985133 88.01275,118.84781 88.01275,118.495071 C88.01275,118.243061 87.8359038,117.992937 87.3386154,117.992937 C87.1953846,117.992937 87.0963654,118.005009 87.0170769,118.015195 L87.0170769,118.985133 Z M87.0170769,120.573779 L86.5753269,120.573779 L86.5753269,117.707728 C86.8073462,117.67302 87.0305962,117.638312 87.3630962,117.638312 C87.7810962,117.638312 88.0573269,117.730363 88.2239423,117.855614 C88.3905577,117.982374 88.47825,118.175154 88.47825,118.448291 C88.47825,118.825175 88.2330769,119.056436 87.9360192,119.145092 L87.9360192,119.169237 C88.1793654,119.214508 88.34525,119.443883 88.4007885,119.866415 C88.4672885,120.311206 88.5345192,120.483237 88.5772692,120.573779 L88.1135962,120.573779 C88.0481923,120.483237 87.9791346,120.219154 87.9243269,119.843779 C87.8585577,119.477082 87.6820769,119.341268 87.3276538,119.341268 L87.0170769,119.341268 L87.0170769,120.573779 Z M87.4825769,116.908312 C86.38825,116.908312 85.4894038,117.87825 85.4894038,119.077185 C85.4894038,120.299133 86.38825,121.258508 87.4917115,121.258508 C88.6002885,121.27058 89.4856154,120.299133 89.4856154,119.089257 C89.4856154,117.87825 88.6002885,116.908312 87.4917115,116.908312 L87.4825769,116.908312 Z M87.4917115,116.508415 C88.8535,116.508415 89.9383269,117.648498 89.9383269,119.077185 C89.9383269,120.528508 88.8535,121.658027 87.4825769,121.658027 C86.1215192,121.658027 85.0165962,120.528508 85.0165962,119.077185 C85.0165962,117.648498 86.1215192,116.508415 87.4825769,116.508415 L87.4917115,116.508415 Z" id="Fill-54" fill="#221F20"></path>
            <mask id="mask-4" fill="white">
                <use xlink:href="#path-3"></use>
            </mask>
            <g id="Clip-56"></g>
        </g>
    </g>
</svg>