<?xml version="1.0" encoding="UTF-8" standalone="no"?>
<svg width="38px" height="64px" viewBox="0 0 38 64" version="1.1" xmlns="http://www.w3.org/2000/svg" xmlns:xlink="http://www.w3.org/1999/xlink">
    <!-- Generator: Sketch 3.7 (28169) - http://www.bohemiancoding.com/sketch -->
    <title>cellphone</title>
    <desc>Created with Sketch.</desc>
    <defs></defs>
    <g id="Page-1" stroke="none" stroke-width="1" fill="none" fill-rule="evenodd">
        <g id="cellphone" fill="#000000">
            <g id="Capa_1">
                <path d="M33.1179048,0 L4.88209524,0 C2.52971429,0 0.606190476,1.92352381 0.606190476,4.27771429 L0.606190476,59.0538095 C0.606190476,61.408 2.52971429,63.3333333 4.88209524,63.3333333 L33.1179048,63.3333333 C35.4757143,63.3333333 37.3938095,61.411619 37.3938095,59.055619 L37.3938095,4.27771429 C37.3938095,1.92352381 35.4739048,0 33.1179048,0 L33.1179048,0 Z M14.4834286,3.08342857 L23.5165714,3.08342857 C23.8006667,3.08342857 24.0340952,3.31504762 24.0340952,3.6027619 C24.0340952,3.88866667 23.8006667,4.12028571 23.5165714,4.12028571 L14.4834286,4.12028571 C14.1975238,4.12028571 13.9659048,3.88866667 13.9659048,3.6027619 C13.9659048,3.31504762 14.1975238,3.08342857 14.4834286,3.08342857 L14.4834286,3.08342857 Z M19,61.1944762 C17.8201905,61.1944762 16.8575238,60.2372381 16.8575238,59.0538095 C16.8575238,57.870381 17.8147619,56.9149524 19,56.9149524 C20.1852381,56.9149524 21.1442857,57.870381 21.1442857,59.0538095 C21.1442857,60.2372381 20.1798095,61.1944762 19,61.1944762 L19,61.1944762 Z M34.4207619,55.4166667 L3.58466667,55.4166667 L3.58466667,6.78390476 L34.4225714,6.78390476 L34.4225714,55.4166667 L34.4207619,55.4166667 Z M19,34.7338095 C23.0985714,34.7338095 26.9474286,36.3298095 29.8372381,39.2232381 C30.2534286,39.6430476 30.2534286,40.321619 29.8372381,40.7414286 C29.4210476,41.1612381 28.7406667,41.1612381 28.3172381,40.7414286 C25.8291429,38.2533333 22.5177143,36.8799048 19,36.8799048 C15.4804762,36.8799048 12.1726667,38.2533333 9.68095238,40.7414286 C9.26295238,41.1612381 8.58257143,41.1612381 8.16095238,40.7414286 C7.7447619,40.3252381 7.7447619,39.6448571 8.16095238,39.2232381 C11.054381,36.3298095 14.9032381,34.7338095 19,34.7338095 L19,34.7338095 Z M16.5824762,23.5455238 C16.5824762,24.9822857 15.4153333,26.147619 13.980381,26.147619 C12.5418095,26.147619 11.3764762,24.9822857 11.3764762,23.5455238 C11.3764762,22.1069524 12.543619,20.9434286 13.980381,20.9434286 C15.4171429,20.941619 16.5824762,22.1069524 16.5824762,23.5455238 L16.5824762,23.5455238 Z M26.6235238,23.5455238 C26.6235238,24.9822857 25.4545714,26.147619 24.0214286,26.147619 C22.5828571,26.147619 21.4193333,24.9822857 21.4193333,23.5455238 C21.4193333,22.1069524 22.5882857,20.9434286 24.0214286,20.9434286 C25.4545714,20.941619 26.6235238,22.1069524 26.6235238,23.5455238 L26.6235238,23.5455238 Z" id="Shape"></path>
            </g>
        </g>
    </g>
</svg>